<?xml version="1.0" encoding="utf-8"?>
<!-- Generator: Adobe Illustrator 27.9.0, SVG Export Plug-In . SVG Version: 6.00 Build 0)  -->
<svg version="1.1" id="Capa_1" xmlns="http://www.w3.org/2000/svg" xmlns:xlink="http://www.w3.org/1999/xlink" x="0px" y="0px"
	 viewBox="0 0 510.24 396.85" style="enable-background:new 0 0 510.24 396.85;" xml:space="preserve">
<style type="text/css">
	.st0{fill:#B41918;}
	.st1{fill:#243E69;}
	.st2{fill:url(#SVGID_1_);}
	.st3{fill:#18A538;}
	.st4{fill:url(#SVGID_00000071543758716628789140000012857165125270693303_);}
	.st5{fill:url(#SVGID_00000123432963681366705670000011256071613385928588_);}
	.st6{fill:url(#SVGID_00000173870209959717324750000001573308029580087728_);}
</style>
<g>
	<g>
		<g>
			<path class="st0" d="M174.77,232.47c0-2.78,0-3.3-0.05-3.88c-0.04-0.5-0.23-0.83-0.63-0.9c-0.12-0.04-0.3-0.05-0.54-0.07
				c-0.21,0-0.34-0.07-0.34-0.2c0-0.11,0.09-0.16,0.39-0.16c0.72,0,2.48,0.05,2.62,0.05c0.16,0,2.28-0.05,2.92-0.05
				c0.3,0,0.39,0.07,0.39,0.18c0,0.14-0.16,0.18-0.34,0.18c-0.18,0.02-0.29,0.02-0.52,0.05c-0.47,0.09-0.65,0.32-0.68,0.97
				c-0.05,0.57-0.05,1.04-0.05,3.82v3.16c0,1.42,0.02,3.09,0.09,3.84c0.04,0.47,0.14,0.79,0.68,0.92c0.23,0.05,0.56,0.07,0.79,0.09
				c0.31,0,0.38,0.07,0.38,0.18c0,0.09-0.09,0.18-0.38,0.18c-1.22,0-3.14-0.05-3.3-0.05c-0.09,0-1.97,0.05-2.58,0.05
				c-0.29,0-0.43-0.04-0.43-0.18c0-0.12,0.14-0.18,0.36-0.18c0.18-0.02,0.36-0.04,0.56-0.07c0.38-0.05,0.5-0.45,0.56-0.97
				c0.07-0.75,0.11-2.05,0.11-3.8V232.47z"/>
			<path class="st0" d="M188.98,235.63c0,1.4,0,3.07,0.09,3.82c0.04,0.47,0.16,0.84,0.7,0.93c0.23,0.04,0.45,0.05,0.77,0.09
				c0.29,0.02,0.36,0.07,0.36,0.2c0,0.11-0.09,0.16-0.41,0.16c-1.22,0-2.96-0.05-3.25-0.05c-0.31,0-2.05,0.05-2.64,0.05
				c-0.29,0-0.41-0.04-0.41-0.18c0-0.12,0.14-0.18,0.36-0.18c0.18-0.02,0.38-0.04,0.57-0.07c0.39-0.07,0.52-0.47,0.57-0.99
				c0.07-0.75,0.11-2.05,0.11-3.79v-7.03c-0.7,0-1.81-0.02-2.71,0.04c-1,0.05-1.4,0.29-1.63,0.92c-0.09,0.2-0.13,0.31-0.16,0.41
				c-0.04,0.14-0.09,0.29-0.22,0.29c-0.16,0-0.16-0.14-0.14-0.36c0.07-0.74,0.27-1.7,0.39-2.39c0.04-0.27,0.09-0.45,0.2-0.45
				c0.13,0,0.2,0.05,0.61,0.14c0.32,0.07,1.31,0.13,1.99,0.13h7.81c0.56,0,0.88-0.04,1.13-0.07c0.29-0.05,0.43-0.11,0.56-0.11
				c0.16,0,0.18,0.11,0.18,0.56c0,0.25-0.11,1.92-0.13,2.37c-0.02,0.25-0.07,0.36-0.18,0.36c-0.14,0-0.18-0.11-0.2-0.32
				c-0.02-0.2-0.02-0.27-0.04-0.36c-0.07-0.56-0.34-0.99-1.4-1.06c-0.59-0.05-1.52-0.09-2.89-0.09V235.63z"/>
			<path class="st0" d="M202.38,239.11c-1.76-1.51-2.26-3.36-2.26-5.28c0-1.22,0.41-3.45,2.22-4.97c1.54-1.31,3.34-1.85,5.94-1.85
				c1.02,0,1.85,0.11,2.55,0.22c0.81,0.13,1.24,0.21,1.78,0.23c0.2,0.02,0.2,0.12,0.2,0.23c0,0.14-0.05,0.57-0.09,1.18
				c-0.04,0.59-0.02,1.65-0.05,2.1c-0.02,0.27-0.05,0.43-0.22,0.43c-0.14,0-0.2-0.12-0.21-0.38c-0.02-0.39-0.09-1.11-0.68-1.76
				c-0.63-0.66-1.88-1.13-3.62-1.13c-1.06,0-1.94,0.25-2.64,0.86c-1.09,0.95-1.58,2.62-1.58,4.54c0,3.7,2.01,6.17,5.02,6.17
				c1.47,0,2.39-0.13,3.09-0.92c0.25-0.27,0.45-0.66,0.59-1.2c0.09-0.38,0.14-0.5,0.29-0.5c0.13,0,0.14,0.18,0.14,0.32
				c0,0.3-0.22,1.87-0.4,2.73c-0.04,0.27-0.16,0.41-0.47,0.52c-0.72,0.29-1.94,0.41-3.09,0.41
				C206.56,241.08,204.26,240.69,202.38,239.11z"/>
			<path class="st0" d="M214.83,234.1c0-3.59,2.4-7.09,7.68-7.09c4.56,0,7.41,3.05,7.41,6.69c0,4.18-2.83,7.38-7.54,7.38
				C217.09,241.08,214.83,237.28,214.83,234.1z M226.33,234.5c0-2.98-1.24-6.37-4.41-6.37c-1.65,0-3.5,0.92-3.5,5.17
				c0,3.39,1.42,6.64,4.5,6.64C224.03,239.93,226.33,239.45,226.33,234.5z"/>
			<path class="st0" d="M233.38,227.86c0.02-0.54,0.09-0.86,0.3-0.86c0.14,0,0.23,0.05,0.7,0.43c0.75,0.63,1.69,1.53,5.8,5.29
				c1.83,1.69,3.07,2.89,3.55,3.32l-0.11-6.73c-0.04-1-0.13-1.47-0.84-1.6c-0.25-0.05-0.54-0.07-0.79-0.09
				c-0.23,0-0.32-0.09-0.32-0.18c0-0.12,0.16-0.18,0.36-0.18c0.72,0,1.88,0.05,2.6,0.05c0.39,0,1.29-0.05,2.05-0.05
				c0.27,0,0.39,0.05,0.39,0.16c0,0.09-0.09,0.2-0.3,0.2c-0.23,0.02-0.32,0.02-0.45,0.05c-0.59,0.07-0.77,0.38-0.83,1.49
				c-0.14,3.61-0.14,7.2-0.22,10.8c0,0.92-0.12,1.11-0.36,1.11c-0.29,0-0.84-0.43-2.01-1.45c-1.22-1.08-2.8-2.49-3.88-3.48
				c-1-0.92-2.8-2.6-4.11-3.88l0.18,6.12c0.04,1.29,0.11,1.78,0.61,1.96c0.27,0.09,0.59,0.09,0.95,0.13
				c0.27,0.02,0.36,0.07,0.36,0.18c0,0.14-0.14,0.18-0.43,0.18c-0.63,0-1.2-0.04-2.32-0.05c-0.41,0-1.74,0.05-2.44,0.05
				c-0.25,0-0.4-0.04-0.4-0.18c0-0.11,0.09-0.18,0.34-0.18c0.16-0.02,0.4-0.02,0.59-0.05c0.7-0.11,0.79-0.56,0.84-2.22
				C233.31,234.5,233.27,230.17,233.38,227.86z"/>
			<path class="st0" d="M248.84,240.58c-0.31-0.13-0.4-0.36-0.4-0.72c0-1.45,0.05-2.14,0.11-2.64c0.04-0.32,0.11-0.43,0.21-0.43
				c0.13,0,0.14,0.16,0.16,0.3c0.02,0.18,0.04,0.34,0.09,0.56c0.31,1.47,1.65,2.31,3.05,2.31c1.71,0,2.23-0.88,2.23-1.65
				c0-0.75-0.14-1.38-1.67-2.42l-1.11-0.77c-2.19-1.54-2.8-2.8-2.8-4.38c0-2.06,1.7-3.73,4.58-3.73c0.77,0,1.31,0.04,2.06,0.18
				c0.29,0.05,0.59,0.13,0.88,0.22c0.18,0.05,0.23,0.11,0.23,0.25c-0.04,0.57-0.07,0.93-0.07,2.53c0,0.32-0.05,0.45-0.2,0.45
				c-0.09,0-0.16-0.05-0.2-0.34c-0.02-0.18-0.07-0.63-0.32-1.04c-0.34-0.57-1.17-1.18-2.46-1.18c-1.47,0-2.01,0.83-2.01,1.65
				c0,0.61,0.22,1.31,1.44,2.14l0.92,0.61c2.51,1.67,3.3,2.78,3.3,4.59c0,1.24-0.56,2.46-1.9,3.25c-1.04,0.63-2.19,0.77-3.12,0.77
				C250.49,241.08,249.54,240.9,248.84,240.58z"/>
			<path class="st0" d="M262.87,235.16c0,2.48,0.38,3.52,1.36,4.22c0.74,0.48,1.35,0.5,1.79,0.5c0.57,0,1.35-0.12,1.97-0.66
				c1-0.86,1-2.75,1-4.59v-2.15c0-2.64,0-3.1-0.04-3.68c-0.04-0.68-0.18-0.99-0.77-1.09c-0.2-0.04-0.31-0.04-0.66-0.07
				c-0.23,0-0.32-0.07-0.32-0.18c0-0.11,0.09-0.18,0.41-0.18c1.02,0,2.12,0.05,2.4,0.05c0.32,0,1.49-0.05,2.37-0.05
				c0.27,0,0.38,0.05,0.38,0.18c0,0.09-0.07,0.16-0.3,0.18c-0.2,0.02-0.31,0.02-0.56,0.07c-0.48,0.09-0.63,0.36-0.68,1.09
				c-0.04,0.57-0.05,1.04-0.05,3.68v1.76c0,2.05-0.09,4.25-1.83,5.67c-1.11,0.93-2.51,1.18-3.73,1.18c-1.58,0-3.16-0.23-4.27-1.2
				c-0.95-0.79-1.67-2.1-1.67-4.68v-2.73c0-2.78,0-3.28-0.05-3.86c-0.04-0.5-0.14-0.74-0.56-0.86c-0.2-0.07-0.61-0.11-0.77-0.13
				c-0.27-0.02-0.38-0.09-0.38-0.2s0.14-0.16,0.48-0.16c0.77,0,2.58,0.05,2.75,0.05c0.14,0,2.28-0.05,2.92-0.05
				c0.31,0,0.4,0.05,0.4,0.16c0,0.14-0.09,0.18-0.32,0.2c-0.16,0.02-0.41,0.04-0.59,0.07c-0.5,0.11-0.59,0.48-0.63,1.06
				c-0.04,0.57-0.05,1.42-0.05,3.71V235.16z"/>
			<path class="st0" d="M278.84,235.64c0,1.81-0.05,3.1,0.25,3.48c0.25,0.34,0.59,0.43,2.08,0.43c0.99,0,1.56-0.02,2.06-0.29
				c0.43-0.2,0.74-0.66,0.93-1.51c0.05-0.2,0.09-0.34,0.23-0.34c0.13,0,0.14,0.09,0.14,0.34c0,0.41-0.2,2.12-0.38,2.64
				c-0.14,0.47-0.29,0.48-1,0.48c-2.48,0-4.14-0.11-6.05-0.11c-0.84,0-1.81,0.05-2.8,0.05c-0.25,0-0.39-0.04-0.39-0.2
				c0-0.11,0.11-0.16,0.36-0.16c0.21-0.02,0.41-0.04,0.61-0.07c0.65-0.11,0.66-0.43,0.72-1.87c0.04-0.72,0.05-1.79,0.05-2.91v-3.16
				c0-2.92-0.02-3.25-0.05-3.82c-0.04-0.5-0.16-0.81-0.61-0.93c-0.16-0.05-0.43-0.07-0.7-0.09c-0.2,0-0.38-0.04-0.38-0.18
				s0.18-0.18,0.54-0.18c1.02,0,1.96,0.05,2.66,0.05c0.16,0,2.39-0.05,3.03-0.05c0.32,0,0.43,0.05,0.43,0.16
				c0,0.16-0.18,0.2-0.43,0.2c-0.18,0.02-0.36,0.02-0.61,0.07c-0.48,0.09-0.61,0.43-0.65,1.06c-0.04,0.57-0.05,0.93-0.05,3.89
				V235.64z"/>
			<path class="st0" d="M291.56,235.63c0,1.4,0,3.07,0.09,3.82c0.04,0.47,0.16,0.84,0.7,0.93c0.23,0.04,0.45,0.05,0.77,0.09
				c0.29,0.02,0.36,0.07,0.36,0.2c0,0.11-0.09,0.16-0.41,0.16c-1.22,0-2.96-0.05-3.25-0.05c-0.31,0-2.05,0.05-2.64,0.05
				c-0.29,0-0.41-0.04-0.41-0.18c0-0.12,0.14-0.18,0.36-0.18c0.18-0.02,0.38-0.04,0.57-0.07c0.39-0.07,0.52-0.47,0.57-0.99
				c0.07-0.75,0.11-2.05,0.11-3.79v-7.03c-0.7,0-1.81-0.02-2.71,0.04c-1,0.05-1.4,0.29-1.63,0.92c-0.09,0.2-0.13,0.31-0.16,0.41
				c-0.04,0.14-0.09,0.29-0.22,0.29c-0.16,0-0.16-0.14-0.14-0.36c0.07-0.74,0.27-1.7,0.39-2.39c0.04-0.27,0.09-0.45,0.2-0.45
				c0.13,0,0.2,0.05,0.61,0.14c0.32,0.07,1.31,0.13,1.99,0.13h7.81c0.56,0,0.88-0.04,1.13-0.07c0.29-0.05,0.43-0.11,0.56-0.11
				c0.16,0,0.18,0.11,0.18,0.56c0,0.25-0.11,1.92-0.13,2.37c-0.02,0.25-0.07,0.36-0.18,0.36c-0.14,0-0.18-0.11-0.2-0.32
				c-0.02-0.2-0.02-0.27-0.04-0.36c-0.07-0.56-0.34-0.99-1.4-1.06c-0.59-0.05-1.52-0.09-2.89-0.09V235.63z"/>
			<path class="st0" d="M299.34,232.47c0-2.78,0-3.3-0.05-3.88c-0.04-0.5-0.23-0.83-0.63-0.9c-0.12-0.04-0.3-0.05-0.54-0.07
				c-0.21,0-0.34-0.07-0.34-0.2c0-0.11,0.09-0.16,0.39-0.16c0.72,0,2.48,0.05,2.62,0.05c0.16,0,2.28-0.05,2.92-0.05
				c0.3,0,0.39,0.07,0.39,0.18c0,0.14-0.16,0.18-0.34,0.18c-0.18,0.02-0.29,0.02-0.52,0.05c-0.47,0.09-0.65,0.32-0.68,0.97
				c-0.05,0.57-0.05,1.04-0.05,3.82v3.16c0,1.42,0.02,3.09,0.09,3.84c0.04,0.47,0.14,0.79,0.68,0.92c0.23,0.05,0.56,0.07,0.79,0.09
				c0.31,0,0.38,0.07,0.38,0.18c0,0.09-0.09,0.18-0.38,0.18c-1.22,0-3.14-0.05-3.3-0.05c-0.09,0-1.97,0.05-2.58,0.05
				c-0.29,0-0.43-0.04-0.43-0.18c0-0.12,0.14-0.18,0.36-0.18c0.18-0.02,0.36-0.04,0.56-0.07c0.38-0.05,0.5-0.45,0.56-0.97
				c0.07-0.75,0.11-2.05,0.11-3.8V232.47z"/>
			<path class="st0" d="M307.79,227.86c0.02-0.54,0.09-0.86,0.3-0.86c0.14,0,0.23,0.05,0.7,0.43c0.75,0.63,1.69,1.53,5.8,5.29
				c1.83,1.69,3.07,2.89,3.55,3.32l-0.11-6.73c-0.04-1-0.13-1.47-0.84-1.6c-0.25-0.05-0.54-0.07-0.79-0.09
				c-0.23,0-0.32-0.09-0.32-0.18c0-0.12,0.16-0.18,0.36-0.18c0.72,0,1.88,0.05,2.6,0.05c0.39,0,1.29-0.05,2.05-0.05
				c0.27,0,0.39,0.05,0.39,0.16c0,0.09-0.09,0.2-0.3,0.2c-0.23,0.02-0.32,0.02-0.45,0.05c-0.59,0.07-0.77,0.38-0.83,1.49
				c-0.14,3.61-0.14,7.2-0.22,10.8c0,0.92-0.12,1.11-0.36,1.11c-0.29,0-0.84-0.43-2.01-1.45c-1.22-1.08-2.8-2.49-3.88-3.48
				c-1-0.92-2.8-2.6-4.11-3.88l0.18,6.12c0.04,1.29,0.11,1.78,0.61,1.96c0.27,0.09,0.59,0.09,0.95,0.13
				c0.27,0.02,0.36,0.07,0.36,0.18c0,0.14-0.14,0.18-0.43,0.18c-0.63,0-1.2-0.04-2.32-0.05c-0.41,0-1.74,0.05-2.44,0.05
				c-0.25,0-0.4-0.04-0.4-0.18c0-0.11,0.09-0.18,0.34-0.18c0.16-0.02,0.4-0.02,0.59-0.05c0.7-0.11,0.79-0.56,0.84-2.22
				C307.72,234.5,307.68,230.17,307.79,227.86z"/>
			<path class="st0" d="M336.44,239.11c0,1.06-0.04,1.17-0.36,1.29c-0.95,0.38-2.78,0.68-4.4,0.68c-5.04,0-8.54-2.26-8.54-7.03
				c0-3,1.56-4.9,3.23-5.85c1.85-1.09,3.79-1.18,5.15-1.18c1.09,0,2.13,0.13,2.91,0.25c0.61,0.07,1.2,0.2,1.72,0.21
				c0.16,0,0.2,0.07,0.18,0.23c-0.04,0.18-0.2,0.92-0.2,3.3c0,0.29-0.07,0.38-0.2,0.38s-0.2-0.14-0.22-0.29
				c-0.04-0.27-0.04-0.47-0.21-0.9c-0.34-1.22-1.94-2.08-4.43-2.08c-1.33,0-2.4,0.38-3.21,1.29c-0.7,0.79-1.13,2.12-1.13,3.88
				c0,3.21,1.54,6.64,5.31,6.64c0.25,0,0.74-0.02,1-0.21c0.14-0.11,0.21-0.27,0.21-0.48v-1.09c0-0.74,0-1.44-0.02-2.1
				c0-1.02-0.23-1.4-0.84-1.49c-0.23-0.04-0.47-0.05-0.77-0.09c-0.14,0-0.29-0.07-0.29-0.18s0.09-0.18,0.38-0.18
				c1.17,0,2.55,0.05,3.03,0.05c0.65,0,1.81-0.05,2.78-0.05c0.27,0,0.41,0.04,0.41,0.18c0,0.13-0.11,0.16-0.29,0.18
				c-0.07,0-0.3,0.04-0.48,0.05c-0.43,0.09-0.63,0.29-0.68,0.92c-0.04,0.57-0.05,1.51-0.05,2.39V239.11z"/>
		</g>
		<g>
			<path class="st1" d="M230.39,205.19c0-5.66,4.17-9.1,8.69-11.26c-2.16-3.03-2.42-5.55-2.42-7.56c0-4.89,4.32-9.77,13.42-9.77
				c3.19,0,5.66,0.57,7.15,1.18c0.82,0.36,1.03,0.77,1.03,1.49c0,1.13-0.41,5.45-0.57,7.05c-0.1,0.77-0.31,1.03-0.62,1.03
				c-0.31,0-0.51-0.31-0.51-1.03c-0.05-1.59-0.51-3.03-1.75-4.47c-1.03-1.18-2.93-2.37-5.3-2.37c-1.95,0-4.53,0.93-4.53,4.73
				c0,4.11,3.19,7.41,7.77,12.6c1.39,1.59,7.77,7.82,8.23,8.28c1.44-2.26,2.62-4.68,2.62-7.82c0-1.34-0.57-2.06-1.34-2.47
				c-0.57-0.36-1.39-0.51-1.9-0.57c-0.62-0.15-0.93-0.31-0.93-0.62c0-0.46,0.72-0.46,1.13-0.46c2.16,0,5.76,0.26,7.41,0.51
				c1.08,0.21,1.65,0.46,1.7,1.7c0.05,3.29-2.26,8.28-5.86,12.08c2.42,2.16,5.5,4.58,6.84,5.45c1.85,1.23,3.09,1.9,4.94,2.06
				c0.82,0.1,1.03,0.31,1.03,0.67c0,0.41-0.41,0.57-1.44,0.57c-0.67,0-8.02-0.1-8.69-0.1c-4.63,0-6.79-0.67-9.77-2.93
				c-2.52,1.95-6.07,3.75-11.52,3.75C233.53,216.92,230.39,210.03,230.39,205.19z M254.15,210.9c-4.94-4.63-9-9.1-13.16-14.24
				c-0.67,0.77-1.44,2.47-1.44,5.35c0,6.43,4.27,10.29,9.1,10.29C250.91,212.29,252.81,211.72,254.15,210.9z"/>
		</g>
		<path class="st1" d="M190.28,208.73c0,3.4,0.66,4.62,6.14,5.66l0,1.79c-5.95-0.28-9.63-0.57-13.12-0.57
			c-3.49,0-7.17,0.28-11.33,0.57v-1.79c3.68-0.66,4.34-2.27,4.34-6.7v-46.15c0-2.64-1.13-3.87-4.34-3.96v-1.79h33.51
			c10.85,0,19.16,5.1,19.16,16.05c0,7.36-3.12,13.97-16.05,17.37l15.39,21.24c1.89,2.64,3.59,3.87,6.04,3.68l0,2.08
			c-3.21-0.28-6.51-0.57-9.72-0.57c-3.21,0-6.42,0.28-9.72,0.57c-5.57-10.38-12.84-20.58-19.06-29.16v-0.19
			c13.78-1.79,19.16-3.68,19.16-12.18c0-7.55-5.66-10.57-14.16-10.57h-6.23V208.73z"/>
		<path class="st1" d="M296.57,208.73c0,3.4,0.66,4.62,6.13,5.66v1.79c-5.95-0.28-9.63-0.57-13.12-0.57s-7.17,0.28-11.33,0.57v-1.79
			c3.68-0.66,4.34-2.27,4.34-6.7v-46.15c0-2.64-1.13-3.87-4.34-3.96v-1.79h33.51c10.85,0,19.16,5.1,19.16,16.05
			c0,7.36-3.11,13.97-16.05,17.37l15.38,21.24c1.89,2.64,3.59,3.87,6.04,3.68v2.08c-3.21-0.28-6.51-0.57-9.72-0.57
			c-3.21,0-6.42,0.28-9.72,0.57c-5.57-10.38-12.84-20.58-19.07-29.16v-0.19c13.78-1.79,19.16-3.68,19.16-12.18
			c0-7.55-5.66-10.57-14.16-10.57h-6.23V208.73z"/>
	</g>
	
		<linearGradient id="SVGID_1_" gradientUnits="userSpaceOnUse" x1="194.4474" y1="9025.5049" x2="98.5093" y2="9067.5938" gradientTransform="matrix(0.7071 0.7071 -0.7071 0.7071 6594.0298 -6391.6636)">
		<stop  offset="0" style="stop-color:#243E69"/>
		<stop  offset="0.2114" style="stop-color:#1B4D7A"/>
		<stop  offset="0.7282" style="stop-color:#076EA0"/>
		<stop  offset="1" style="stop-color:#007BAF"/>
	</linearGradient>
	<path class="st2" d="M331.17,104.97c-0.3-0.01-0.59-0.02-0.88-0.02c-7.53-0.17-14.78,0.11-21.6,0.7
		c-34.32,2.78-63.2,8.41-74.62-0.74c-0.1-0.27-1.24-1-2.38-2.21c-6.87-8.86,7.46-24.58,34.29-24.15
		C285.58,77.81,311.04,87.09,331.17,104.97z"/>
	<path class="st3" d="M331.53,105.3c-0.42-0.12-0.83-0.23-1.24-0.35c0.29,0,0.58,0.01,0.88,0.02
		C331.29,105.08,331.41,105.19,331.53,105.3z"/>
	
		<linearGradient id="SVGID_00000103948911221008727240000014117177876174658697_" gradientUnits="userSpaceOnUse" x1="371.4468" y1="9003.2725" x2="188.2364" y2="9067.0244" gradientTransform="matrix(0.7071 0.7071 -0.7071 0.7071 6594.0298 -6391.6636)">
		<stop  offset="0" style="stop-color:#243E69"/>
		<stop  offset="0.2114" style="stop-color:#1B4D7A"/>
		<stop  offset="0.7282" style="stop-color:#076EA0"/>
		<stop  offset="1" style="stop-color:#007BAF"/>
	</linearGradient>
	<path style="fill:url(#SVGID_00000103948911221008727240000014117177876174658697_);" d="M387.05,275.84
		c-19.75-8.23-19.89-22.64-18.75-45.98c0.92-23.1,5.93-57.75-14.24-95.69c-5.8-11.23-13.64-20.9-22.54-28.87
		c-0.12-0.11-0.24-0.22-0.36-0.32c-20.13-17.88-45.59-27.16-65.19-26.43c-26.83-0.44-41.16,15.28-34.29,24.15
		c-2.73-2.9-5.47-8.58,5.96-17.54c7.2-5.64,28.58-14.74,57.18-14.82c-0.09-0.02-0.18-0.04-0.27-0.06
		c1.02-0.06,68.72-3.88,129.1,62.59c10,11.32,17.35,21.87,22.64,31.62c3.01,5.55,5.36,10.84,7.15,15.87
		c0.01,0.04,0.02,0.07,0.03,0.09c3.72,10.91,5.23,22.08,4.74,32.6c0,0.03,0,0.06-0.01,0.09c-0.47,9.84-2.73,19.1-6.6,27.05
		C438.8,270.57,404.34,283.43,387.05,275.84z"/>
	<g>
		<path class="st3" d="M56.48,216.52c1.79,5.03,4.14,10.32,7.15,15.87C60.69,227.23,58.31,221.91,56.48,216.52z"/>
		
			<linearGradient id="SVGID_00000131329300255135242130000002833613469161060262_" gradientUnits="userSpaceOnUse" x1="178.754" y1="302.6455" x2="279.9378" y2="302.6455">
			<stop  offset="0" style="stop-color:#828281"/>
			<stop  offset="0.1922" style="stop-color:#919190"/>
			<stop  offset="0.7216" style="stop-color:#B7B7B6"/>
			<stop  offset="1" style="stop-color:#C6C6C5"/>
		</linearGradient>
		<path style="fill:url(#SVGID_00000131329300255135242130000002833613469161060262_);" d="M178.75,291.89
			c0.3,0.01,0.59,0.02,0.88,0.02c7.53,0.17,14.78-0.11,21.6-0.7c34.32-2.78,63.2-8.41,74.62,0.74c0.11,0.27,1.24,1,2.38,2.21
			c6.87,8.86-7.46,24.58-34.29,24.15C224.34,319.05,198.88,309.77,178.75,291.89z"/>
		<path class="st3" d="M178.4,291.56c0.42,0.12,0.83,0.23,1.24,0.35c-0.29,0-0.58-0.01-0.88-0.02
			C178.63,291.78,178.51,291.67,178.4,291.56z"/>
		
			<linearGradient id="SVGID_00000013886501455266162230000015889534267619762871_" gradientUnits="userSpaceOnUse" x1="864.9448" y1="-8999.9639" x2="681.7344" y2="-8936.2109" gradientTransform="matrix(-0.7071 -0.7071 0.7071 -0.7071 6994.9312 -5592.6123)">
			<stop  offset="0" style="stop-color:#828281"/>
			<stop  offset="0.1922" style="stop-color:#919190"/>
			<stop  offset="0.7216" style="stop-color:#B7B7B6"/>
			<stop  offset="1" style="stop-color:#C6C6C5"/>
		</linearGradient>
		<path style="fill:url(#SVGID_00000013886501455266162230000015889534267619762871_);" d="M122.87,121.02
			c19.75,8.23,19.89,22.64,18.75,45.98c-0.92,23.1-5.93,57.75,14.24,95.69c5.8,11.23,13.64,20.9,22.54,28.87
			c0.12,0.11,0.24,0.22,0.36,0.32c20.13,17.88,45.59,27.16,65.19,26.43c26.83,0.44,41.16-15.28,34.29-24.15
			c2.73,2.9,5.47,8.58-5.96,17.54c-7.2,5.64-28.58,14.74-57.18,14.82c0.09,0.02,0.18,0.04,0.27,0.06
			c-1.02,0.06-68.72,3.88-129.1-62.59c-10-11.32-17.35-21.87-22.64-31.62c-3.01-5.55-5.36-10.84-7.15-15.87
			c-0.01-0.04-0.02-0.07-0.03-0.09c-3.72-10.91-5.23-22.08-4.74-32.6c0-0.03,0-0.06,0.01-0.09c0.47-9.84,2.73-19.1,6.6-27.05
			C71.12,126.29,105.58,113.43,122.87,121.02z"/>
		<path class="st3" d="M51.71,183.83c-0.5,10.52,1.02,21.69,4.74,32.6C52.03,203.98,51.01,193.11,51.71,183.83z"/>
	</g>
</g>
</svg>
