<?xml version="1.0" encoding="utf-8"?>
<!-- Generator: Adobe Illustrator 26.5.1, SVG Export Plug-In . SVG Version: 6.00 Build 0)  -->
<svg version="1.1" id="Capa_1" xmlns="http://www.w3.org/2000/svg" xmlns:xlink="http://www.w3.org/1999/xlink" x="0px" y="0px"
	 viewBox="0 0 155.9 50.9" style="enable-background:new 0 0 155.9 50.9;" xml:space="preserve">
<style type="text/css">
	.st0{fill:#E6E5E6;}
</style>
<g id="Ebene_x0020_1">
	<g id="_1027943152">
		<path id="BakerTilly-Logo_s.cdr" class="st0" d="M142,40.9c0.1,0,0.9-0.1,1.1-0.2c3.6-0.6,6.3-2.2,7.8-6.6c1-3,5-15.3,5-15.3h-4.2
			l-3.4,11.6h-0.7L145,18.8h-4.4l4.3,15.2h2.3c0,0-0.1,0.3-0.2,0.5c-0.5,1.7-3.1,2.8-5.6,3.2L142,40.9L142,40.9z M100.4,34V22.3
			c0.5-0.2,1.6-0.3,2.8-0.3c0.7,0,1.7,0.1,2.3,0.1v-3.4c-0.4-0.1-1.6-0.2-2.6-0.2c-2.7,0-5.2,0.7-6.5,1.3V34L100.4,34L100.4,34z
			 M140.6,34l0.1-3.1c-0.2,0-0.6,0.1-1,0.1c-1.4,0-1.8-0.9-1.8-2.1V12.3l-4.1,1.8v15.6c0,2.2,1.1,4.5,4.3,4.5
			C139.5,34.2,140.4,34.1,140.6,34z M132.2,34l0.1-3.1c-0.2,0-0.6,0.1-1,0.1c-1.4,0-1.8-0.9-1.8-2.1V12.3l-4.1,1.8v15.6
			c0,2.2,1.1,4.5,4.3,4.5C131.1,34.2,132.1,34.1,132.2,34L132.2,34z M117.7,34V18.8l4.1,0V34L117.7,34L117.7,34z M119.7,17
			c-1.2,0-2.2-0.5-2.2-2.2c0-1.6,0.8-2.3,2.2-2.3c1.4,0,2.2,0.5,2.2,2.2C121.9,16.4,121.1,17,119.7,17L119.7,17z M90.4,24.7v-0.3
			c0-2.1-0.9-3-3.1-3c-2.3,0-3.2,1.2-3.2,3.3L90.4,24.7L90.4,24.7z M88.5,31c2.3,0,3.7-0.5,4.4-0.7l0.4,3c-0.6,0.3-2.5,1.1-5,1.1
			c-5.5,0-8.4-2.8-8.4-8.3c0-5.5,2.7-7.7,7.4-7.7c5.1,0,6.8,2.8,6.8,7.7c0,0.5,0,1.2-0.1,1.5H83.9C83.9,30.3,86,31,88.5,31z
			 M70.2,34v-6.7h1l4.9,6.7h4.5l-6.3-8.8l5.7-6.4h-4.4l-4.5,5.1h-0.9V12.3l-4.1,1.8V34H70.2L70.2,34z M111.9,34.2
			c1.6,0,2.7-0.3,2.8-0.3l0.2-3.1c-0.1,0.1-0.9,0.3-1.4,0.3c-1.9,0-2.5-1.3-2.5-3.1v-5.6h4.3v-3.6h-4.3v-3.2l-4,1.8v11.7
			C107.1,32.6,108.9,34.2,111.9,34.2L111.9,34.2z M59.4,27.7c-0.7-0.1-2.1-0.3-3.2-0.3c-2.6,0-2.9,1.1-2.9,2c0,1.5,0.7,2.1,3,2.1
			c1.5,0,2.5-0.2,3.1-0.4V27.7z M56.1,34.4c-5.1,0-6.5-1.6-6.5-4.9c0-3.4,1.5-4.9,6.4-4.9c1.6,0,3,0.2,3.5,0.3v-1
			c0-1.2-0.6-2.1-3.9-2.1c-2.6,0-4,0.7-4.5,0.9l-0.3-3.1c0.7-0.3,2.8-1.1,6-1.1c4.8,0,6.7,2,6.7,6v8.8
			C62.2,33.8,59.3,34.4,56.1,34.4L56.1,34.4z M39.9,31.1c3.2,0,4.1-1.8,4.1-4.7c0-2.8-1-4.6-4.1-4.6c-0.9,0-1.7,0.2-2.7,0.5v8.4
			C37.9,30.9,38.9,31.1,39.9,31.1L39.9,31.1z M33.1,14.1l4.1-1.8v6.8c1.1-0.3,1.9-0.7,4-0.7c4.6,0,6.8,2.4,6.8,8c0,6.5-2.6,8-8.4,8
			c-2.8,0-5.2-0.5-6.4-1L33.1,14.1L33.1,14.1z M18.3,0.7L18.3,0.7C17.2,0.2,15.6,0,14,0C6.8,0,0,4,0,10.8c0,2.4,0.8,5,2.1,7.3
			c1.5,2.6,3.6,5,6.1,6.7c1.9,1.3,4.1,2.2,6.3,2.2c1.9,0,3.2-0.5,3.6-0.9c-0.2,0-0.6,0.1-1.2,0.1c-6,0-10-5.3-11.5-9.2
			c-0.6-1.5-1-3.3-1-5c0-7.2,6.5-11.2,12.8-11.2C17.5,0.8,17.9,0.8,18.3,0.7C18.3,0.8,18.3,0.8,18.3,0.7C18.3,0.8,18.3,0.8,18.3,0.7
			L18.3,0.7z M19.4,11.5c-3.1,0-5.7,2.3-5.7,5.4c0,2.9,2.4,5.6,5.8,5.6c0.8,0,1.6-0.2,2.3-0.5c0.1-0.1,0.3-0.1,0.4-0.2
			c0.1-0.1,0.1-0.2,0.2-0.3c0.9-1.5,1.9-5.1,2.1-7c0-0.2,0-0.3-0.2-0.4C23.4,13,21.9,11.5,19.4,11.5L19.4,11.5z M24.5,11.8
			c0,0.3,0,0.8,0,1.1c-1.2-2.1-3.4-3.2-5.8-3.2c-3.4,0-6.5,3-6.5,7c0,3.9,3.1,6.7,6.7,6.7c1,0,1.9-0.2,2.8-0.6
			c-0.4,0.6-0.8,1.1-1.3,1.6c-0.2,0.2-0.4,0.5-0.7,0.6c-0.3,0.1-1,0.4-2.3,0.4c-4.2,0-7-3.1-8.4-5.1c-1.3-2-2.5-4.7-2.5-7.5
			c0-5.7,4.7-8.6,9.9-8.6C22.1,4.1,24.5,8.6,24.5,11.8L24.5,11.8z"/>
		<polygon class="st0" points="34.1,50.7 34.1,43.3 33.1,43.3 33.1,50.7 		"/>
		<path id="_x31_" class="st0" d="M37.4,50.7c0-4.1,0-5.3,0-6.2c0.3,0.7,0.6,1.2,3.4,6.2H42v-7.4h-0.9c0,4.2,0,5.1,0,6
			c-0.3-0.6-0.7-1.5-3.3-6h-1.3v7.4L37.4,50.7L37.4,50.7z"/>
		<polygon id="_x32_" class="st0" points="46.9,50.7 46.9,44.2 49.2,44.2 49.2,43.3 43.6,43.3 43.6,44.2 45.9,44.2 45.9,50.7 		"/>
		<polygon id="_x33_" class="st0" points="55.2,50.7 55.2,49.9 51.7,49.9 51.7,47.3 54.8,47.3 54.8,46.4 51.7,46.4 51.7,44.2 
			55.1,44.2 55.1,43.3 50.7,43.3 50.7,50.7 		"/>
		<path id="_x34_" class="st0" d="M58.1,50.7v-3.1h1c0.2,0,0.4,0,0.6,0l1.6,3.1l1.1,0l-1.8-3.3c0.9-0.3,1.4-1,1.4-2
			c0-0.9-0.3-1.6-1.1-1.9c-0.4-0.2-1.1-0.3-1.9-0.3c-0.7,0-1.5,0-1.9,0.1v7.4L58.1,50.7L58.1,50.7z M58.1,46.8v-2.6
			c0.5,0,0.9,0,1.1,0c0.6,0,1,0.1,1.2,0.2c0.4,0.2,0.6,0.4,0.6,1.2c0,0.6-0.3,1-0.7,1.2c-0.3,0.1-0.7,0.2-1.2,0.2L58.1,46.8
			L58.1,46.8z"/>
		<path id="_x35_" class="st0" d="M65,50.7c0-4.1,0-5.3,0-6.2c0.3,0.7,0.6,1.2,3.4,6.2h1.2v-7.4h-0.9c0,4.2,0,5.1,0,6
			c-0.3-0.6-0.7-1.5-3.3-6H64v7.4L65,50.7L65,50.7z"/>
		<path id="_x36_" class="st0" d="M72.8,48.5h2.8l0.7,2.2l1.1,0l-2.6-7.4h-1.2L71,50.7l1,0L72.8,48.5L72.8,48.5z M73.1,47.7
			c0.7-2.1,0.9-2.7,1.1-3.4c0.2,0.7,0.4,1.3,1.1,3.4H73.1L73.1,47.7z"/>
		<polygon id="_x37_" class="st0" points="80.7,50.7 80.7,44.2 83,44.2 83,43.3 77.5,43.3 77.5,44.2 79.7,44.2 79.7,50.7 		"/>
		<polygon id="_x38_" class="st0" points="85.6,50.7 85.6,43.3 84.6,43.3 84.6,50.7 		"/>
		<path id="_x39_" class="st0" d="M93.6,47c0-3.2-1-3.8-3-3.8c-1.8,0-3.1,0.7-3.1,3.8c0,3.1,1,3.9,3,3.9
			C92.7,50.9,93.6,50.1,93.6,47L93.6,47z M92.6,47c0,2.6-0.8,3-2.1,3c-1.3,0-2-0.5-2-3c0-2.4,0.7-3,2.1-3C92.1,44,92.6,44.5,92.6,47
			z"/>
		<path id="_x31_0" class="st0" d="M96.7,50.7c0-4.1,0-5.3,0-6.2c0.3,0.7,0.6,1.2,3.4,6.2h1.2v-7.4h-0.9c0,4.2,0,5.1,0,6
			c-0.3-0.6-0.7-1.5-3.3-6h-1.3v7.4L96.7,50.7L96.7,50.7z"/>
		<path id="_x31_1" class="st0" d="M104.5,48.5h2.8l0.7,2.2l1.1,0l-2.6-7.4h-1.2l-2.6,7.4l1,0L104.5,48.5L104.5,48.5z M104.7,47.7
			c0.7-2.1,0.9-2.7,1.1-3.4c0.2,0.7,0.4,1.3,1.1,3.4H104.7L104.7,47.7z"/>
		<polygon id="_x31_2" class="st0" points="115,50.7 115,49.9 111.5,49.9 111.5,43.3 110.5,43.3 110.5,50.7 		"/>
	</g>
</g>
</svg>
