<svg width="94" height="127" viewBox="0 0 94 127" fill="none" xmlns="http://www.w3.org/2000/svg">
<g filter="url(#filter0_i_607_70)">
<rect x="4" width="86" height="75" fill="#B50808"/>
</g>
<g filter="url(#filter1_d_607_70)">
<path d="M4 73H90V109C90 114.523 85.5229 119 80 119H14C8.47715 119 4 114.523 4 109V73Z" fill="white"/>
</g>
<path d="M42.0211 50.25C42.6878 50.25 43.2128 50.4417 43.5961 50.825C43.9961 51.1917 44.1961 51.6833 44.1961 52.3V56H19.3961V53.95C19.3961 53.5333 19.4794 53.1 19.6461 52.65C19.8294 52.1833 20.1128 51.7667 20.4961 51.4L31.4711 40.4C32.3878 39.4667 33.2044 38.575 33.9211 37.725C34.6544 36.875 35.2628 36.0333 35.7461 35.2C36.2294 34.3667 36.5961 33.525 36.8461 32.675C37.1128 31.8083 37.2461 30.9 37.2461 29.95C37.2461 29.0833 37.1211 28.325 36.8711 27.675C36.6211 27.0083 36.2628 26.45 35.7961 26C35.3461 25.55 34.7961 25.2167 34.1461 25C33.5128 24.7667 32.7961 24.65 31.9961 24.65C31.2628 24.65 30.5794 24.7583 29.9461 24.975C29.3294 25.175 28.7794 25.4667 28.2961 25.85C27.8128 26.2167 27.4044 26.65 27.0711 27.15C26.7378 27.65 26.4878 28.2 26.3211 28.8C26.0378 29.5667 25.6711 30.075 25.2211 30.325C24.7711 30.575 24.1211 30.6333 23.2711 30.5L20.0211 29.925C20.2711 28.1917 20.7544 26.675 21.4711 25.375C22.1878 24.0583 23.0794 22.9667 24.1461 22.1C25.2294 21.2167 26.4628 20.5583 27.8461 20.125C29.2461 19.675 30.7461 19.45 32.3461 19.45C34.0128 19.45 35.5378 19.7 36.9211 20.2C38.3044 20.6833 39.4878 21.375 40.4711 22.275C41.4544 23.175 42.2211 24.2583 42.7711 25.525C43.3211 26.7917 43.5961 28.2 43.5961 29.75C43.5961 31.0833 43.3961 32.3167 42.9961 33.45C42.6128 34.5833 42.0878 35.6667 41.4211 36.7C40.7711 37.7333 40.0044 38.7333 39.1211 39.7C38.2378 40.6667 37.3128 41.65 36.3461 42.65L28.1961 50.975C28.9794 50.7417 29.7544 50.5667 30.5211 50.45C31.3044 50.3167 32.0461 50.25 32.7461 50.25H42.0211ZM56.65 32.975C57.45 32.8083 58.2167 32.6917 58.95 32.625C59.6833 32.5417 60.3917 32.5 61.075 32.5C62.975 32.5 64.65 32.7833 66.1 33.35C67.55 33.9167 68.7667 34.7 69.75 35.7C70.7333 36.7 71.475 37.875 71.975 39.225C72.475 40.5583 72.725 42 72.725 43.55C72.725 45.4667 72.3833 47.2167 71.7 48.8C71.0333 50.3833 70.1 51.7417 68.9 52.875C67.7 53.9917 66.275 54.8583 64.625 55.475C62.9917 56.0917 61.2083 56.4 59.275 56.4C58.1417 56.4 57.0667 56.2833 56.05 56.05C55.0333 55.8167 54.075 55.5083 53.175 55.125C52.2917 54.725 51.4667 54.275 50.7 53.775C49.95 53.2583 49.275 52.7167 48.675 52.15L50.575 49.525C50.975 48.9583 51.5 48.675 52.15 48.675C52.5667 48.675 52.9917 48.8083 53.425 49.075C53.8583 49.3417 54.35 49.6333 54.9 49.95C55.4667 50.2667 56.125 50.5583 56.875 50.825C57.6417 51.0917 58.5583 51.225 59.625 51.225C60.7583 51.225 61.7583 51.0417 62.625 50.675C63.4917 50.3083 64.2083 49.8 64.775 49.15C65.3583 48.4833 65.7917 47.7 66.075 46.8C66.375 45.8833 66.525 44.8917 66.525 43.825C66.525 41.8583 65.95 40.325 64.8 39.225C63.6667 38.1083 61.9833 37.55 59.75 37.55C58.0333 37.55 56.275 37.8667 54.475 38.5L50.625 37.4L53.625 19.85H71.475V22.475C71.475 23.3583 71.2 24.075 70.65 24.625C70.1 25.175 69.1667 25.45 67.85 25.45H57.925L56.65 32.975Z" fill="white"/>
<path d="M29.336 98.575C29.336 99.5917 29.211 100.508 28.961 101.325C28.711 102.142 28.336 102.837 27.836 103.412C27.3444 103.987 26.7277 104.429 25.986 104.737C25.2444 105.046 24.3819 105.2 23.3985 105.2C22.9485 105.2 22.5069 105.171 22.0735 105.113C21.6402 105.063 21.186 104.979 20.711 104.862C20.736 104.529 20.7652 104.196 20.7985 103.862C20.8319 103.529 20.861 103.196 20.886 102.862C20.911 102.679 20.9819 102.533 21.0985 102.425C21.2235 102.308 21.3985 102.25 21.6235 102.25C21.7652 102.25 21.9485 102.279 22.1735 102.337C22.4069 102.396 22.6985 102.425 23.0485 102.425C23.5235 102.425 23.9444 102.358 24.311 102.225C24.6777 102.083 24.9819 101.862 25.2235 101.562C25.4735 101.262 25.661 100.875 25.786 100.4C25.911 99.9167 25.9735 99.3333 25.9735 98.65V86.925H29.336V98.575ZM40.4657 102.287C41.1157 102.287 41.6949 102.179 42.2032 101.962C42.7199 101.746 43.1532 101.442 43.5032 101.05C43.8532 100.658 44.1199 100.183 44.3032 99.625C44.4949 99.0667 44.5907 98.4417 44.5907 97.75V86.925H47.9532V97.75C47.9532 98.825 47.7782 99.8208 47.4282 100.737C47.0866 101.646 46.5907 102.433 45.9407 103.1C45.2991 103.758 44.5157 104.275 43.5907 104.65C42.6657 105.017 41.6241 105.2 40.4657 105.2C39.2991 105.2 38.2532 105.017 37.3282 104.65C36.4032 104.275 35.6157 103.758 34.9657 103.1C34.3241 102.433 33.8282 101.646 33.4782 100.737C33.1366 99.8208 32.9657 98.825 32.9657 97.75V86.925H36.3282V97.7375C36.3282 98.4292 36.4199 99.0542 36.6032 99.6125C36.7949 100.171 37.0657 100.65 37.4157 101.05C37.7741 101.442 38.2074 101.746 38.7157 101.962C39.2324 102.179 39.8157 102.287 40.4657 102.287ZM62.3329 102.225V105H51.7454V86.925H55.1079V102.225H62.3329ZM70.128 98V105H66.778V98L60.1905 86.925H63.153C63.4447 86.925 63.6739 86.9958 63.8405 87.1375C64.0155 87.2792 64.1614 87.4583 64.278 87.675L67.578 93.7125C67.7697 94.0708 67.9364 94.4083 68.078 94.725C68.228 95.0417 68.3614 95.3583 68.478 95.675C68.5864 95.3583 68.7114 95.0417 68.853 94.725C68.9947 94.4083 69.1572 94.0708 69.3405 93.7125L72.628 87.675C72.7197 87.4917 72.8572 87.3208 73.0405 87.1625C73.2239 87.0042 73.4572 86.925 73.7405 86.925H76.7155L70.128 98Z" fill="black"/>
<defs>
<filter id="filter0_i_607_70" x="4" y="0" width="86" height="79" filterUnits="userSpaceOnUse" color-interpolation-filters="sRGB">
<feFlood flood-opacity="0" result="BackgroundImageFix"/>
<feBlend mode="normal" in="SourceGraphic" in2="BackgroundImageFix" result="shape"/>
<feColorMatrix in="SourceAlpha" type="matrix" values="0 0 0 0 0 0 0 0 0 0 0 0 0 0 0 0 0 0 127 0" result="hardAlpha"/>
<feOffset dy="4"/>
<feGaussianBlur stdDeviation="2"/>
<feComposite in2="hardAlpha" operator="arithmetic" k2="-1" k3="1"/>
<feColorMatrix type="matrix" values="0 0 0 0 0 0 0 0 0 0 0 0 0 0 0 0 0 0 0.25 0"/>
<feBlend mode="normal" in2="shape" result="effect1_innerShadow_607_70"/>
</filter>
<filter id="filter1_d_607_70" x="0" y="73" width="94" height="54" filterUnits="userSpaceOnUse" color-interpolation-filters="sRGB">
<feFlood flood-opacity="0" result="BackgroundImageFix"/>
<feColorMatrix in="SourceAlpha" type="matrix" values="0 0 0 0 0 0 0 0 0 0 0 0 0 0 0 0 0 0 127 0" result="hardAlpha"/>
<feOffset dy="4"/>
<feGaussianBlur stdDeviation="2"/>
<feComposite in2="hardAlpha" operator="out"/>
<feColorMatrix type="matrix" values="0 0 0 0 0 0 0 0 0 0 0 0 0 0 0 0 0 0 0.25 0"/>
<feBlend mode="normal" in2="BackgroundImageFix" result="effect1_dropShadow_607_70"/>
<feBlend mode="normal" in="SourceGraphic" in2="effect1_dropShadow_607_70" result="shape"/>
</filter>
</defs>
</svg>
