<svg width="94" height="127" viewBox="0 0 94 127" fill="none" xmlns="http://www.w3.org/2000/svg">
<g filter="url(#filter0_i_607_75)">
<rect x="4" width="86" height="75" fill="#B50808"/>
</g>
<g filter="url(#filter1_d_607_75)">
<path d="M4 73H90V109C90 114.523 85.5229 119 80 119H14C8.47715 119 4 114.523 4 109V73Z" fill="white"/>
</g>
<path d="M20.1961 29.925C20.4461 28.1917 20.9294 26.675 21.6461 25.375C22.3628 24.0583 23.2544 22.9667 24.3211 22.1C25.4044 21.2167 26.6378 20.5583 28.0211 20.125C29.4211 19.675 30.9211 19.45 32.5211 19.45C34.1878 19.45 35.6878 19.6917 37.0211 20.175C38.3711 20.6417 39.5211 21.3 40.4711 22.15C41.4211 22.9833 42.1461 23.9667 42.6461 25.1C43.1628 26.2333 43.4211 27.4583 43.4211 28.775C43.4211 29.925 43.2878 30.9417 43.0211 31.825C42.7711 32.6917 42.4044 33.45 41.9211 34.1C41.4378 34.75 40.8378 35.3 40.1211 35.75C39.4044 36.2 38.5961 36.575 37.6961 36.875C39.8628 37.5583 41.4794 38.6 42.5461 40C43.6128 41.4 44.1461 43.1583 44.1461 45.275C44.1461 47.075 43.8128 48.6667 43.1461 50.05C42.4794 51.4333 41.5794 52.6 40.4461 53.55C39.3128 54.4833 37.9961 55.1917 36.4961 55.675C35.0128 56.1583 33.4378 56.4 31.7711 56.4C29.9544 56.4 28.3711 56.1917 27.0211 55.775C25.6711 55.3583 24.4961 54.7417 23.4961 53.925C22.4961 53.1083 21.6461 52.1083 20.9461 50.925C20.2461 49.7417 19.6461 48.375 19.1461 46.825L21.8711 45.7C22.5878 45.4 23.2544 45.325 23.8711 45.475C24.5044 45.6083 24.9628 45.9417 25.2461 46.475C25.5461 47.0583 25.8711 47.6333 26.2211 48.2C26.5878 48.7667 27.0211 49.275 27.5211 49.725C28.0211 50.1583 28.6044 50.5167 29.2711 50.8C29.9544 51.0667 30.7628 51.2 31.6961 51.2C32.7461 51.2 33.6628 51.0333 34.4461 50.7C35.2294 50.35 35.8794 49.9 36.3961 49.35C36.9294 48.8 37.3211 48.1917 37.5711 47.525C37.8378 46.8417 37.9711 46.1583 37.9711 45.475C37.9711 44.6083 37.8794 43.825 37.6961 43.125C37.5128 42.4083 37.1294 41.8 36.5461 41.3C35.9628 40.8 35.1211 40.4083 34.0211 40.125C32.9378 39.8417 31.4794 39.7 29.6461 39.7V35.3C31.1628 35.2833 32.4211 35.1417 33.4211 34.875C34.4211 34.6083 35.2128 34.2417 35.7961 33.775C36.3961 33.2917 36.8128 32.7167 37.0461 32.05C37.2794 31.3833 37.3961 30.65 37.3961 29.85C37.3961 28.15 36.9211 26.8583 35.9711 25.975C35.0211 25.0917 33.7544 24.65 32.1711 24.65C31.4378 24.65 30.7628 24.7583 30.1461 24.975C29.5294 25.175 28.9711 25.4667 28.4711 25.85C27.9878 26.2167 27.5794 26.65 27.2461 27.15C26.9128 27.65 26.6628 28.2 26.4961 28.8C26.2128 29.5667 25.8378 30.075 25.3711 30.325C24.9211 30.575 24.2794 30.6333 23.4461 30.5L20.1961 29.925ZM72.375 51.375V56H52.375V51.375H59.7V30.3C59.7 29.4667 59.725 28.6083 59.775 27.725L54.575 32.075C54.275 32.3083 53.975 32.4583 53.675 32.525C53.3917 32.575 53.1167 32.575 52.85 32.525C52.6 32.475 52.375 32.3917 52.175 32.275C51.975 32.1417 51.825 32 51.725 31.85L49.775 29.175L60.8 19.8H65.875V51.375H72.375Z" fill="white"/>
<path d="M29.336 98.575C29.336 99.5917 29.211 100.508 28.961 101.325C28.711 102.142 28.336 102.837 27.836 103.412C27.3444 103.987 26.7277 104.429 25.986 104.737C25.2444 105.046 24.3819 105.2 23.3985 105.2C22.9485 105.2 22.5069 105.171 22.0735 105.113C21.6402 105.063 21.186 104.979 20.711 104.862C20.736 104.529 20.7652 104.196 20.7985 103.862C20.8319 103.529 20.861 103.196 20.886 102.862C20.911 102.679 20.9819 102.533 21.0985 102.425C21.2235 102.308 21.3985 102.25 21.6235 102.25C21.7652 102.25 21.9485 102.279 22.1735 102.337C22.4069 102.396 22.6985 102.425 23.0485 102.425C23.5235 102.425 23.9444 102.358 24.311 102.225C24.6777 102.083 24.9819 101.862 25.2235 101.562C25.4735 101.262 25.661 100.875 25.786 100.4C25.911 99.9167 25.9735 99.3333 25.9735 98.65V86.925H29.336V98.575ZM40.4657 102.287C41.1157 102.287 41.6949 102.179 42.2032 101.962C42.7199 101.746 43.1532 101.442 43.5032 101.05C43.8532 100.658 44.1199 100.183 44.3032 99.625C44.4949 99.0667 44.5907 98.4417 44.5907 97.75V86.925H47.9532V97.75C47.9532 98.825 47.7782 99.8208 47.4282 100.737C47.0866 101.646 46.5907 102.433 45.9407 103.1C45.2991 103.758 44.5157 104.275 43.5907 104.65C42.6657 105.017 41.6241 105.2 40.4657 105.2C39.2991 105.2 38.2532 105.017 37.3282 104.65C36.4032 104.275 35.6157 103.758 34.9657 103.1C34.3241 102.433 33.8282 101.646 33.4782 100.737C33.1366 99.8208 32.9657 98.825 32.9657 97.75V86.925H36.3282V97.7375C36.3282 98.4292 36.4199 99.0542 36.6032 99.6125C36.7949 100.171 37.0657 100.65 37.4157 101.05C37.7741 101.442 38.2074 101.746 38.7157 101.962C39.2324 102.179 39.8157 102.287 40.4657 102.287ZM62.3329 102.225V105H51.7454V86.925H55.1079V102.225H62.3329ZM70.128 98V105H66.778V98L60.1905 86.925H63.153C63.4447 86.925 63.6739 86.9958 63.8405 87.1375C64.0155 87.2792 64.1614 87.4583 64.278 87.675L67.578 93.7125C67.7697 94.0708 67.9364 94.4083 68.078 94.725C68.228 95.0417 68.3614 95.3583 68.478 95.675C68.5864 95.3583 68.7114 95.0417 68.853 94.725C68.9947 94.4083 69.1572 94.0708 69.3405 93.7125L72.628 87.675C72.7197 87.4917 72.8572 87.3208 73.0405 87.1625C73.2239 87.0042 73.4572 86.925 73.7405 86.925H76.7155L70.128 98Z" fill="black"/>
<defs>
<filter id="filter0_i_607_75" x="4" y="0" width="86" height="79" filterUnits="userSpaceOnUse" color-interpolation-filters="sRGB">
<feFlood flood-opacity="0" result="BackgroundImageFix"/>
<feBlend mode="normal" in="SourceGraphic" in2="BackgroundImageFix" result="shape"/>
<feColorMatrix in="SourceAlpha" type="matrix" values="0 0 0 0 0 0 0 0 0 0 0 0 0 0 0 0 0 0 127 0" result="hardAlpha"/>
<feOffset dy="4"/>
<feGaussianBlur stdDeviation="2"/>
<feComposite in2="hardAlpha" operator="arithmetic" k2="-1" k3="1"/>
<feColorMatrix type="matrix" values="0 0 0 0 0 0 0 0 0 0 0 0 0 0 0 0 0 0 0.25 0"/>
<feBlend mode="normal" in2="shape" result="effect1_innerShadow_607_75"/>
</filter>
<filter id="filter1_d_607_75" x="0" y="73" width="94" height="54" filterUnits="userSpaceOnUse" color-interpolation-filters="sRGB">
<feFlood flood-opacity="0" result="BackgroundImageFix"/>
<feColorMatrix in="SourceAlpha" type="matrix" values="0 0 0 0 0 0 0 0 0 0 0 0 0 0 0 0 0 0 127 0" result="hardAlpha"/>
<feOffset dy="4"/>
<feGaussianBlur stdDeviation="2"/>
<feComposite in2="hardAlpha" operator="out"/>
<feColorMatrix type="matrix" values="0 0 0 0 0 0 0 0 0 0 0 0 0 0 0 0 0 0 0.25 0"/>
<feBlend mode="normal" in2="BackgroundImageFix" result="effect1_dropShadow_607_75"/>
<feBlend mode="normal" in="SourceGraphic" in2="effect1_dropShadow_607_75" result="shape"/>
</filter>
</defs>
</svg>
