<svg version="1.2" xmlns="http://www.w3.org/2000/svg" viewBox="0 0 610 326" width="610" height="326">
	<title>colonmbina-svg</title>
	<style>
		.s0 { fill: #ffffff } 
		.s1 { fill: #e6e5e5 } 
	</style>
	<g id="Layer">
		<path id="Layer" class="s0" d="m21.5 270.6l-0.3-146.5c215.6-80.3 468.5-74 468.5-74l15.8-24.1c3-4.7 7.7-7.3 12.7-7.3 5 0 9.6 2.7 12.7 7.3l53.7 82c4.9 7.5 4.9 18.7 0 26.2l-53.7 82c-3 4.7-7.7 7.3-12.7 7.3-5 0-9.6-2.7-12.7-7.3 0 0-5.6-8.6-13.2-20.2 0.1 0.1-249.9-8-470.8 74.6z"/>
		<path id="Layer" class="s1" d="m487.9 188c-227.5-1.3-394.2 47.3-458.1 71l-0.3-129.2c63.7-23.5 229.8-71.3 455.6-71.5-15 23-32.6 49.8-32.6 49.8-2.4 3.7-3.6 8.3-3.6 12.9 0 4.6 1.2 9.3 3.6 12.9 0 0 19.8 30.3 35.4 54.1z"/>
		<g id="Layer">
			<path id="Layer" class="s0" d="m166.8 188.1l-10.6 2.3c-0.5 0-13.1-0.5-13.2-20.3 0-11.4 0-31.2 0-41 0-4.7-2.6-7.5-2.6-7.5l16.6-3.9 0.1 48.6c-0.1 18.1 9.7 21.8 9.7 21.8z"/>
			<path id="Layer" fill-rule="evenodd" class="s0" d="m202.6 153.4c0 9.6-1.5 17-4.7 22.2-3.2 5.1-8 8.5-14.5 10-6.3 1.5-11.1 0.3-14.3-3.6-3.2-3.9-4.8-10.4-4.8-19.6 0-9.5 1.5-16.8 4.6-22 3.1-5.2 7.9-8.6 14.4-10.1 6.9-1.6 11.8-0.5 14.8 3.3q4.3 5.7 4.5 19.8zm-14.2 3.6c0-8.7-0.7-14-1.2-16-0.5-2-1.7-2.7-3.7-2.3-1.9 0.4-3.1 1.8-3.6 4.1-0.5 2.3-1.6 7.7-1.6 16.3 0 8.4 1.2 13.6 1.7 15.6q0.7 3 3.6 2.4 2.7-0.6 3.6-4.2c0.6-2.4 1.3-7.7 1.2-15.9z"/>
			<path id="Layer" fill-rule="evenodd" class="s0" d="m137.7 168.2c0 9.6-1.6 17-4.7 22.2-3.2 5.1-8 8.5-14.5 10-6.3 1.4-11.1 0.3-14.3-3.6-3.2-3.9-4.8-10.4-4.8-19.6 0-9.5 1.5-16.8 4.6-22 3.1-5.2 7.9-8.6 14.4-10.1 6.9-1.6 11.8-0.5 14.8 3.3q4.3 5.7 4.5 19.8zm-14.2 3.6c0-8.7-0.7-14-1.2-16-0.5-2-1.7-2.7-3.7-2.3-1.9 0.4-3.1 1.8-3.6 4.1-0.5 2.3-1.6 7.8-1.6 16.4 0 8.4 1.2 13.6 1.7 15.6q0.8 3 3.6 2.4 2.7-0.6 3.6-4.2c0.6-2.5 1.3-7.8 1.2-16z"/>
			<path id="Layer" class="s0" d="m246.9 129.2v44.2l-14 2.2v-40.5c0-1-0.2-2.8-1.6-3.5-1.6-0.8-5-0.3-7.4 1.1v44.4l-14.1 2.5c0 0 0-25 0-33 0-16.7-8-19.3-8-19.3l19.2-3.4 1.2 2.8c3.7-3 9.4-5.2 15.1-5.2 4.2 0 6.3 2.3 6.9 3.2 4.7-5.7 14.3-8.5 20.8-5.3 4.1 2 4.8 6.2 4.8 9.2 0 0 0 19 0.1 28.1 0 11.5 3.7 12.8 3.7 12.8l-17.7 2.6v-40.5c0-2-1.1-3.2-2.3-3.7-1.3-0.5-4.3-0.3-6.7 1.3z"/>
			<path id="Layer" class="s0" d="m358.3 108.7l-1-2.4-11.4 1.2 0.1 53.8 14.1-1.2-0.1-45.1c3.6-1.5 6.4-1.3 7.7-0.6 0.9 0.5 1.8 1.5 1.8 3.6l0.1 41.3 18.3-1.2c0 0-4.3-2.9-4.3-12 0-4.1 0-29.8 0-29.8 0-6.3-3.1-10.2-8.2-11.2-5-1-11.3-0.1-17.1 3.6z"/>
			<path id="Layer" class="s0" d="m337.4 162.1l-14 1.4c0 0-0.1-37.2-0.1-39.6 0-11.4-4.3-13.7-4.3-13.7l18.3-1.9z"/>
			<path id="Layer" class="s0" d="m339.8 90c-6.4 5.5-9.7 13.5-9.7 13.5 0 0-3-8-9.7-11.9 6.8-6 9.6-13 9.6-13 0 0 3.4 7.3 9.8 11.4z"/>
			<path id="Layer" fill-rule="evenodd" class="s0" d="m315.6 134.9c0 10.6-0.4 18.2-5.3 25.1-5.5 7.2-18.3 9.5-25.5 7-7-2.1-6.6-8.8-6.9-11.7 0 0 0.2-44.9 0.2-49.1 0-6.1-3.7-9.4-3.7-9.4l17.6-2.3v21c1-0.9 10.8-7.8 18.5-2.5 4.3 2.9 5.1 8.3 5.1 21.9zm-15.1-12.5c-3.5-2.9-8.5 1.2-8.6 1.2v34.7c3.1 1.1 6.3-0.1 7.9-2.3 2.8-4.5 3-10.1 3-18.2 0-10.5-0.5-13.9-2.3-15.4z"/>
			<path id="Layer" fill-rule="evenodd" class="s0" d="m436.3 155.9l-17.1 0.6c-0.6-1.3-0.8-3.3-1-5.5-8 11.2-18.1 5.5-21.2 1.7-3.5-4.3-5.9-10.8-5.9-18.5 0-16.9 6.7-31.5 23.4-32.2 6.6-0.2 7.5 2.3 11.5 1.3 3.1-0.8 5.9-3.1 5.9-3.1 0 0 0 34.6 0 43.8-0.1 8.9 4.5 11.9 4.4 11.9zm-18.1-12.7c0-4.5-0.1-16.5-0.1-18.6 0-2.8 0-12.8 0-12.8-0.7-0.9-3.8-1.8-5.9-0.5-3.6 2.2-6.8 10.2-6.8 19.1 0 8.6 1.9 15.3 4.9 16 3.5 0.8 6.1-1.2 7.9-3.2z"/>
			<path id="Layer" class="s0" d="m98.3 201.2c0 0-2.3-5.2-2.7-10-3.8 3.9-6.4 6.2-11.1 7.1-8.4 1.6-10.8-6.4-11.7-12.1-0.4-3-0.5-1.3-0.8-12.9-0.3-10.1 1.3-16.8 1.3-16.8 0 0 1.2-7.8 6.8-10.9 8.5-4.6 18 6 18 6-0.4-0.3-0.1-13.4-0.1-13.4 0 0-8.4-6-17.7-4.9-21.6 2.5-27.2 24.8-27.2 43.4 0 12.8 3.6 23 8.4 28.4 4.4 5.1 21.6 12.4 36.8-3.9z"/>
		</g>
		<path id="Layer" class="s1" d="m577.6 112.4c3.1 4.8 3.1 12.7 0 17.5l-53.6 82c-3.1 4.8-8.3 4.8-11.4 0l-53.6-82c-3.1-4.8-3.1-12.7 0-17.5l53.6-82c3.1-4.8 8.3-4.8 11.4 0z"/>
		<path id="Layer" fill-rule="evenodd" class="s0" d="m527.6 122.1c-1.1-0.9-3.3-2.8-4.8-4.5l-0.1-0.1-0.1-0.1c-1.6-1.4-3.6-4.5-5-6.5-0.4-0.6-0.7-1-0.9-1.4-0.3-0.5 0.1-0.8 0.2-0.9 0.6-0.4 1.1-1.1 1.2-2.1 0-0.1 0-0.1 0-0.2 0-0.9-0.4-1.7-1.1-2.4 0.5-0.1 1.2-0.3 1.6-0.6 1.1-0.9 1.1-2.1 1.2-2.7 0.1-0.7 0.3-1.3 0.6-1.4 0.6-0.3 1.4-0.6 1.6-1.1 0.4-1-0.3-1.8-1-3-0.1-0.2-0.3-1-0.3-1 1.6-0.7 3.3-2 3.3-4 0-0.8 0-5.2-5-6.9-1.6-0.5-3-1.2-4-1.7 6.6-6.2 15.8-10 25.6-10 0.6 0 1.1 0 1.7 0-6.2-2.7-12.8-4.4-20-4.4-27.1 0-49 21.5-49 48 0 24 17.9 43.8 41.3 47.5 0 0-0.6 1.1-0.6 2.4 0 2 1.1 3.6 1.7 4.8 0.4 0.7 0.5 1.3 0.5 2.2-0.1 1.7 0.8 3.4 0.8 3.4 0.5 1 0.8 2 1.4 2.7 0.8 1.3 2.4 1.9 3.7 1.5 1.2-0.3 2-1.4 2-2.7 0-1 0.1-6.2 1.6-9.3 0.5-1 1.4-2.6 2.5-4.6 18-2 32.9-13.6 39.6-29.4-6.8 6.9-16.4 11.2-27 11.2-0.5 0-0.8 0-1.4 0 3.3-6.6-0.3-9.5-1.2-9.8 5.7-13.5-8.9-13-10.6-12.9z"/>
		<path id="Layer" fill-rule="evenodd" class="s1" d="m534.7 136.2c4.5 1.5 3.5 5.9 1.6 8.6-1.8 2.7-11.2 17.9-13.2 22-1.7 3.5-1.8 9-1.8 10.3 0 0.8-0.8 0.7-1.3 0-0.5-0.7-0.8-1.6-1.2-2.5-1-1.7 0-3.4-1.4-5.8-0.2-0.3-0.4-0.7-0.6-1-1.5-2.7-0.1-4.4 0.8-4.4 0.9 0 2-0.4 2.3-0.6 3-2.6 4.9-12.9 4.9-12.9-2.5 1.2-6.7 11.7-6.7 11.7-1.3 0.9-1.5-2.5-1.8-4-0.4-1.6 1-2.7 0.8-4.5 0-0.9-0.3-2.9-0.3-4.2 0-1.3 0.8-1.3 1.2-1.3 0.4-0.1 2.1 0.3 2.5 0.3 0.8 0 0.9-0.7 0.9-0.7 0.6-2 2.8-4.7 2.8-4.7-1.5-0.8-4.2-0.1-4.2-0.1-21.9 11.8-32-13.9-32-13.9 3 0.7 5.1 1.1 8.9 0 3.7-1.1 6.5-4.2 6.5-4.2-0.6-4.2-2.2-10.8-1.5-13.9 0-2.6 2.1-5.1 2.9-6.9 0.6-1.2-0.1-2-0.1-2-0.1-0.2-0.2-0.3-0.1-0.5 0.1-0.2 0.2-0.5 0.3-0.8 0.1-0.3 0.2-0.4 0.4-0.3 0.1 0 0.7 0.3 0.7 0.3 0.5-1.4-0.7-2.9-1.9-4.3-1.2-1.4-1.8-5.5-1.8-5.5-1.3 0.2-1.4-0.6-1.4-0.6-1 1.5 0.1 4.7 0.4 6.2 0.1 0.5 0.2 1.1 0.2 1.8 0 2-1.5 3.6-3.4 3.6-1.9 0-3.4-1.6-3.4-3.6q0-0.3 0-0.6c0.6 0.8 1.6 1.2 2.3 0.9 0.7-0.3 1-1 1-1.8 0-1.5-0.3-3.7-0.5-5.8-0.2-3.1 3.1-2.6 3.1-2.6 0.4-1.6 3.2-1.4 3.2-1.4 1.5-1.9 3.4-3.4 6-3.7 2.6-0.3 4.6 1.3 4.6 1.3 7.1 1 7.1 4.7 7 6.2-0.1 1.5-2 2-2 2-0.6 0.8-1.4 0.9-1.4 0.9 0 0 0.2 1.2 0.2 1.3 0 0.1 0.1 0.5 0.2 0.7 0.2 0.4 0.9 1.3 1 1.4 0.2 0.2 0.1 0.6-0.3 0.7-0.3 0.1-0.4 0.1-0.5 0.2-0.1 0-0.3 0.1-0.2 0.4 0 0.3 0.1 0.4 0.1 0.5 0 0.1 0.1 0.2-0.2 0.2-0.3 0-0.9 0.1-0.9 0.1l0.5 0.5c0.1 0.1 0.2 0.1 0 0.2-0.1 0.1-0.3 0.3-0.4 0.6-0.1 0.5 0 1.1-0.5 1.5-0.8 0.7-2.6 0.1-4.3-0.1-1.3-0.1-0.4 1.7-0.4 1.7 0.5 0.2 2.7 1.4 2.8 3 0.1 1.2-1 0.8-1.6 2.2-0.3 0.6-0.2 1.3 0 1.7 0.6 1 4.3 6.8 7 9.3 2.2 2.5 5.8 5.3 5.8 5.3 11.4-0.6 10.1 5.2 9.6 7.1-0.1 2-1.2 4.5-1.2 4.5zm-12.7-10.2c-0.6-0.7-2.1-2.2-3.1-3-1.2-1-3.1-2.9-3.1-2.9 0 0-0.5 3.3-1.7 4.5 0 0 1.1 2.9 1.1 4.2 0 0 0.9-0.8 4.2-1.8 1.4-0.7 2.8-0.9 2.6-1z"/>
		<g id="Layer">
			<path id="Layer" fill-rule="evenodd" class="s0" d="m61.7 232.1c0 5.8-4.8 10.6-10.8 10.6-6 0-10.8-4.8-10.8-10.6 0-5.9 4.9-10.6 10.8-10.6 6 0 10.9 4.7 10.8 10.6zm-1.2-0.1c0-5.2-4.3-9.4-9.6-9.4-5.3 0-9.6 4.2-9.6 9.4 0 5.2 4.3 9.4 9.6 9.4 5.4 0 9.6-4.2 9.6-9.4z"/>
			<path id="Layer" fill-rule="evenodd" class="s0" d="m54 232.5l2.8 5.9h-3l-2.5-5.4h-2.2v5.4h-2.8v-13h5.5c3.3 0 4.5 2.1 4.5 3.8 0 1.4-0.9 2.7-2.3 3.3zm-0.5-3.3c0-1.8-1.9-1.6-3.3-1.6h-1.1v3.2h1.3c1.2 0 3.1 0.1 3.1-1.6z"/>
		</g>
		<g id="Layer">
			<path id="Layer" class="s1" d="m91.7 269.2l0.1 4-10.7 2.7-0.2 11.2 9.9-2.4v3.5l-9.9 2.5v11.9l11.5-2.7 0.1 3.7-17.6 4.4v-34.8z"/>
			<path id="Layer" class="s1" d="m103 266.5l0.6 34.5-5.2 1.1-0.6-34.5z"/>
			<path id="Layer" class="s1" d="m132.2 271.7c-1-0.1-2.4-0.3-4 0-2.3 0.5-3.4 2.1-3.1 3.6 0.2 1 0.9 1.7 3.2 3.2l1 0.6c2.4 1.7 4.7 3.2 5.3 6.1 0.8 3.4-0.9 8.2-7.2 9.6-3.5 0.8-6.1-0.1-7-0.3l0.8-3.1c1.1 0.3 3 0.8 5.3 0.3 2.5-0.6 3.6-2.4 3.1-4.2-0.3-1.5-1.5-2.3-3.7-3.8l-1-0.7c-3.4-2.3-4.3-3.7-4.7-5.5-0.9-3.8 2.1-7.8 7.1-8.9 0.6-0.1 2.7-0.6 5.5-0.1z"/>
			<path id="Layer" fill-rule="evenodd" class="s1" d="m157.4 287l-5.1 1.1v-7.2c-0.7 2.2-2.4 8.3-7.3 9.3-3.1 0.6-5.8-1.1-6.8-5.7-1.5-7.1 1.6-19.4 11.7-21.6 2.5-0.5 4.8-0.4 7.3 0.2zm-7.6-21c-5.4 1.1-7 11.8-5.9 17.2 0.1 0.6 0.6 2.9 2.7 2.5 2.2-0.5 3.4-4 3.7-5.2 0.7-2.8 1.6-7.5 1.6-14.5-0.4-0.1-1.1-0.2-2.1 0z"/>
			<path id="Layer" fill-rule="evenodd" class="s1" d="m168.6 247.5l0.3 18.4c1.2-4.2 3.5-7.9 7.1-8.7 3.6-0.8 6 1.9 6.8 5.4 1.7 7.7-1.3 19.7-11.5 22-3.7 0.8-6.5 0.3-7.6 0.1l-0.7-35.9zm2.7 33.9c6.3-1.4 6.6-13.8 5.8-17.3-0.2-0.9-0.8-2.8-2.6-2.4-1.7 0.4-2.8 2.7-3.5 4.6-1.8 5-1.9 12.6-1.9 15.3 0.7 0 1.3 0 2.2-0.2z"/>
			<path id="Layer" fill-rule="evenodd" class="s1" d="m197.2 253.4c5.3-1.1 8.9 2 9.9 7.1 1.3 6.6-1 17.4-10 19.2-5 1-9-1.9-10.1-7.4-1.8-9 3.1-17.5 10.2-18.9zm-0.2 23.2c5-1 4.7-13.2 4-16.7-0.3-1.7-1.4-3.9-3.6-3.5-4.7 0.9-5.2 11.5-4.1 16.7 0 0.6 0.7 4.1 3.7 3.5z"/>
			<path id="Layer" class="s1" d="m217.9 250.5l-0.1 9.2c0.8-3.9 2.7-10.2 6.5-10.9 0.4-0.1 0.8 0 1.1-0.1l-0.1 5.1c-0.5 0-0.7 0-1.4 0.1-4.3 0.8-6.4 12.8-6.2 21.7l-5.4 1 0.4-25.2z"/>
			<path id="Layer" fill-rule="evenodd" class="s1" d="m257 265.8c-3.3 2.7-5.9 4.4-9.1 4.9-4 0.6-7.8-1.4-8.6-6.6-1.2-7.7 4.4-18.8 12.5-20 3.9-0.6 5.5 1.6 5.8 3.7 1 6.4-6.6 9.4-12.4 10.8-0.6 5 0.2 8.9 3.6 8.4 1.3-0.2 3-0.9 6.1-3.6zm-3.8-17c-0.2-1.3-1-1.8-2-1.6-1.8 0.3-4.4 3.2-5.6 8.6 3.9-0.9 8.2-3.1 7.6-7z"/>
			<path id="Layer" class="s1" d="m274.3 245c-0.9-0.2-2.4-0.5-4-0.3-2.3 0.3-3.6 1.8-3.4 3.4 0.1 1 0.8 1.8 2.9 3.5l0.9 0.7c2.3 1.8 4.4 3.6 4.8 6.5 0.5 3.5-1.6 8.1-8 9-3.6 0.5-6-0.6-6.9-0.9l1-3.1c1 0.4 2.9 1.1 5.3 0.7 2.5-0.4 3.7-2.1 3.5-4-0.2-1.5-1.3-2.4-3.4-4.1l-1-0.8c-3.2-2.6-4-4.1-4.3-5.9-0.5-3.9 2.7-7.6 7.8-8.3 0.6-0.1 2.8-0.4 5.5 0.4z"/>
			<path id="Layer" class="s1" d="m299.5 238.1l-0.2 25.1-5.6 0.7 0.2-25.1zm1.1-7l-3.8 3.6-3.7-4.2 3.8-3.6z"/>
			<path id="Layer" class="s1" d="m311.7 236.5l-0.2 7.2c0.7-1.9 2.7-8 7.9-8.5 5.7-0.6 5.8 5.2 5.7 7.7l-0.5 17.3-5.6 0.7 0.4-17.4c0.1-2.5-0.2-4.2-2-4-2.5 0.3-4.3 5.4-4.6 6.7-1 4.4-1.4 8.9-1.6 15.4l-5.4 0.7 0.6-25.2z"/>
			<path id="Layer" class="s1" d="m343 224.5c-0.4-0.1-1.1-0.2-1.9-0.1-2.5 0.2-3 2.4-3.1 5.8l-0.2 3.5 4.2-0.4-0.1 3.1-4.2 0.4-0.7 16c-0.4 8.3-0.7 15.5-8.4 16.2-1.3 0.1-2.1 0-2.7-0.1l0.2-3c0.5 0.1 1.1 0.2 1.9 0.1 3.2-0.3 3.8-3.5 3.9-11.8l0.4-16.8-3.7 0.3 0.1-3.1 3.6-0.3 0.2-3.1c0.1-2.6-0.1-9 7.4-9.6 1.6-0.1 2.3-0.1 3.5 0.2z"/>
			<path id="Layer" class="s1" d="m352.2 232.2l-0.9 24.9-5.6 0.7 0.9-25.1zm1.4-6.9l-3.9 3.4-3.6-4.3 3.9-3.4z"/>
			<path id="Layer" class="s1" d="m364.4 231.1l-0.3 7.2c0.7-1.9 2.8-7.8 8-8.1 5.8-0.3 5.7 5.4 5.6 7.9l-0.7 17.1-5.6 0.5 0.6-17.2c0.1-2.5-0.2-4.2-1.9-4.1-2.5 0.1-4.4 5.2-4.7 6.5-1.1 4.3-1.5 8.8-1.7 15.3l-5.5 0.5 0.9-25.1z"/>
			<path id="Layer" class="s1" d="m390.1 229.4l-0.6 24.9-5.6 0.4 0.6-25zm1.4-6.8l-3.9 3.3-3.6-4.4 3.9-3.2z"/>
			<path id="Layer" class="s1" d="m404.3 222l-0.2 6.6 4.3-0.1-0.1 3.1-4.3 0.1-0.5 15.2c-0.1 3.2 0.5 3.4 1.5 3.4 0.9 0 1.8-0.4 2.7-0.9l1.6 2.9c-0.9 0.4-3.2 1.5-6 1.6-3 0.1-5.6-1.5-5.5-5.9l0.5-16.1-3.5 0.1 0.1-3.1 3.9-0.1 0.2-6.6z"/>
			<path id="Layer" fill-rule="evenodd" class="s1" d="m422.1 227.6c5.4 0 9 3.6 10 8.8 1.2 6.7-1.3 16.9-10.4 17-5 0-9.1-3.5-10.1-9.1-1.8-9.3 3.3-16.7 10.5-16.7zm-0.5 22.7c5 0 4.9-12.1 4.3-15.7-0.3-1.7-1.3-4.1-3.6-4.1-4.7 0-5.4 10.3-4.4 15.7 0 0.6 0.7 4.1 3.7 4.1z"/>
		</g>
	</g>
</svg>