<?xml version="1.0" encoding="utf-8"?>
<!-- Generator: Adobe Illustrator 26.5.1, SVG Export Plug-In . SVG Version: 6.00 Build 0)  -->
<svg version="1.1" id="Layer_2" xmlns="http://www.w3.org/2000/svg" xmlns:xlink="http://www.w3.org/1999/xlink" x="0px" y="0px"
	 viewBox="0 0 609.4 326" style="enable-background:new 0 0 609.4 326;" xml:space="preserve">
<style type="text/css">
	.st0{fill:#FFFFFF;}
	.st1{fill:#E6E5E5;}
	.st2{fill:#FF1101;}
</style>
<g>
	<path class="st0" d="M21.5,270.6l-0.3-146.5c215.6-80.3,468.5-74,468.5-74l15.8-24.1c3-4.7,7.7-7.3,12.7-7.3c5,0,9.6,2.7,12.7,7.3
		l53.7,82c4.9,7.5,4.9,18.7,0,26.2l-53.7,82c-3,4.7-7.7,7.3-12.7,7.3c-5,0-9.6-2.7-12.7-7.3c0,0-5.6-8.6-13.2-20.2
		C492.4,196.1,242.4,188,21.5,270.6z"/>
	<path class="st1" d="M487.9,188c-227.5-1.3-394.2,47.3-458.1,71l-0.3-129.2c63.7-23.5,229.8-71.3,455.6-71.5
		c-15,23-32.6,49.8-32.6,49.8c-2.4,3.7-3.6,8.3-3.6,12.9c0,4.6,1.2,9.3,3.6,12.9C452.5,133.9,472.3,164.2,487.9,188z"/>
	<g>
		<path class="st0" d="M166.8,188.1l-10.6,2.3c-0.5,0-13.1-0.5-13.2-20.3c0-11.4,0-31.2,0-41c0-4.7-2.6-7.5-2.6-7.5l16.6-3.9
			l0.1,48.6C157,184.4,166.8,188.1,166.8,188.1z"/>
		<path class="st0" d="M187.2,172.9c-0.6,2.4-1.8,3.8-3.6,4.2c-1.9,0.4-3.1-0.4-3.6-2.4c-0.5-2-1.7-7.2-1.7-15.6
			c0-8.6,1.1-14,1.6-16.3c0.5-2.3,1.7-3.7,3.6-4.1c2-0.4,3.2,0.3,3.7,2.3c0.5,2,1.2,7.3,1.2,16C188.5,165.2,187.8,170.5,187.2,172.9
			 M198.1,133.6c-3-3.8-7.9-4.9-14.8-3.3c-6.5,1.5-11.3,4.9-14.4,10.1c-3.1,5.2-4.6,12.5-4.6,22c0,9.2,1.6,15.7,4.8,19.6
			c3.2,3.9,8,5.1,14.3,3.6c6.5-1.5,11.3-4.9,14.5-10c3.2-5.2,4.7-12.6,4.7-22.2C202.5,144,201,137.4,198.1,133.6z"/>
		<path class="st0" d="M122.3,187.8c-0.6,2.4-1.8,3.8-3.6,4.2c-1.9,0.4-3.1-0.4-3.6-2.4c-0.5-2-1.7-7.2-1.7-15.6
			c0-8.6,1.1-14.1,1.6-16.4c0.5-2.3,1.7-3.7,3.6-4.1c2-0.4,3.2,0.3,3.7,2.3c0.5,2,1.2,7.3,1.2,16C123.6,180,122.9,185.3,122.3,187.8
			 M133.2,148.4c-3-3.8-7.9-4.9-14.8-3.3c-6.5,1.5-11.3,4.9-14.4,10.1c-3.1,5.2-4.6,12.5-4.6,22c0,9.2,1.6,15.7,4.8,19.6
			c3.2,3.9,8,5,14.3,3.6c6.5-1.5,11.3-4.9,14.5-10c3.1-5.2,4.7-12.6,4.7-22.2C137.6,158.8,136.1,152.2,133.2,148.4z"/>
		<path class="st0" d="M246.9,129.2l0,44.2l-14,2.2l0-40.5c0-1-0.2-2.8-1.6-3.5c-1.6-0.8-5-0.3-7.4,1.1l0,44.4l-14.1,2.5
			c0,0,0-25,0-33c0-16.7-8-19.3-8-19.3l19.2-3.4l1.2,2.8c3.7-3,9.4-5.2,15.1-5.2c4.2,0,6.3,2.3,6.9,3.2c4.7-5.7,14.3-8.5,20.8-5.3
			c4.1,2,4.8,6.2,4.8,9.2c0,0,0,19,0.1,28.1c0,11.5,3.7,12.8,3.7,12.8l-17.7,2.6l0-40.5c0-2-1.1-3.2-2.3-3.7
			C252.3,127.4,249.3,127.6,246.9,129.2z"/>
		<path class="st0" d="M358.3,108.7l-1-2.4l-11.4,1.2l0.1,53.8l14.1-1.2L360,115c3.6-1.5,6.4-1.3,7.7-0.6c0.9,0.5,1.8,1.5,1.8,3.6
			l0.1,41.3l18.3-1.2c0,0-4.3-2.9-4.3-12c0-4.1,0-29.8,0-29.8c0-6.3-3.1-10.2-8.2-11.2C370.4,104.1,364.1,105,358.3,108.7z"/>
		<path class="st0" d="M337.4,162.1l-14,1.4c0,0-0.1-37.2-0.1-39.6c0-11.4-4.3-13.7-4.3-13.7l18.3-1.9L337.4,162.1z"/>
		<path class="st0" d="M339.8,90c-6.4,5.5-9.7,13.5-9.7,13.5s-3-8-9.7-11.9c6.8-6,9.6-13,9.6-13S333.4,85.9,339.8,90z"/>
		<path class="st0" d="M315.6,134.9c0,10.6-0.4,18.2-5.3,25.1c-5.5,7.2-18.3,9.5-25.5,7c-7-2.1-6.6-8.8-6.9-11.7
			c0,0,0.2-44.9,0.2-49.1c0-6.1-3.7-9.4-3.7-9.4l17.6-2.3l0,21c1-0.9,10.8-7.8,18.5-2.5C314.8,115.9,315.6,121.3,315.6,134.9
			 M300.5,122.4c-3.5-2.9-8.5,1.2-8.6,1.2c0,0,0,34.7,0,34.7c3.1,1.1,6.3-0.1,7.9-2.3c2.8-4.5,3-10.1,3-18.2
			C302.8,127.3,302.3,123.9,300.5,122.4z"/>
		<path class="st0" d="M431.9,144v-30.8c0-9.2,0-13,0-13s-2.8,2.3-5.9,3.1c-4,1-4.9-1.5-11.5-1.3c-16.7,0.7-23.4,15.3-23.4,32.2
			c0,7.7,2.4,14.2,5.9,18.5c3.1,3.8,13.2,9.5,21.2-1.7c0.2,2.2,0.4,4.2,1,5.5l17.1-0.6C436.4,155.9,431.8,152.9,431.9,144
			 M410.3,146.4c-3-0.7-4.9-7.4-4.9-16c0-8.9,3.2-16.9,6.8-19.1c2.1-1.3,5.2-0.4,5.9,0.5c0,0,0,10,0,12.8c0,2.1,0.1,14.1,0.1,18.6
			C416.4,145.2,413.8,147.2,410.3,146.4z"/>
		<path class="st0" d="M98.3,201.2c0,0-2.3-5.2-2.7-10c-3.8,3.9-6.4,6.2-11.1,7.1c-8.4,1.6-10.8-6.4-11.7-12.1
			c-0.4-3-0.5-1.3-0.8-12.9c-0.3-10.1,1.3-16.8,1.3-16.8s1.2-7.8,6.8-10.9c8.5-4.6,18,6,18,6c-0.4-0.3-0.1-13.4-0.1-13.4
			s-8.4-6-17.7-4.9c-21.6,2.5-27.2,24.8-27.2,43.4c0,12.8,3.6,23,8.4,28.4C65.9,210.2,83.1,217.5,98.3,201.2z"/>
	</g>
	<path class="st1" d="M577.6,112.4c3.1,4.8,3.1,12.7,0,17.5l-53.6,82c-3.1,4.8-8.3,4.8-11.4,0l-53.6-82c-3.1-4.8-3.1-12.7,0-17.5
		l53.6-82c3.1-4.8,8.3-4.8,11.4,0L577.6,112.4z"/>
	<path class="st0" d="M527.6,122.1c-1.1-0.9-3.3-2.8-4.8-4.5l-0.1-0.1l-0.1-0.1c-1.6-1.4-3.6-4.5-5-6.5c-0.4-0.6-0.7-1-0.9-1.4
		c-0.3-0.5,0.1-0.8,0.2-0.9c0.6-0.4,1.1-1.1,1.2-2.1c0-0.1,0-0.1,0-0.2c0-0.9-0.4-1.7-1.1-2.4c0.5-0.1,1.2-0.3,1.6-0.6
		c1.1-0.9,1.1-2.1,1.2-2.7c0.1-0.7,0.3-1.3,0.6-1.4c0.6-0.3,1.4-0.6,1.6-1.1c0.4-1-0.3-1.8-1-3c-0.1-0.2-0.3-1-0.3-1
		c1.6-0.7,3.3-2,3.3-4c0-0.8,0-5.2-5-6.9c-1.6-0.5-3-1.2-4-1.7c6.6-6.2,15.8-10,25.6-10c0.6,0,1.1,0,1.7,0c-6.2-2.7-12.8-4.4-20-4.4
		c-27.1,0-49,21.5-49,48c0,24,17.9,43.8,41.3,47.5c0,0-0.6,1.1-0.6,2.4c0,2,1.1,3.6,1.7,4.8c0.4,0.7,0.5,1.3,0.5,2.2
		c-0.1,1.7,0.8,3.4,0.8,3.4c0.5,1,0.8,2,1.4,2.7c0.8,1.3,2.4,1.9,3.7,1.5c1.2-0.3,2-1.4,2-2.7c0,0,0,0,0,0c0-1,0.1-6.2,1.6-9.3
		c0.5-1,1.4-2.6,2.5-4.6c18-2,32.9-13.6,39.6-29.4c-6.8,6.9-16.4,11.2-27,11.2c-0.5,0-0.8,0-1.4,0c3.3-6.6-0.3-9.5-1.2-9.8
		C543.9,121.5,529.3,122,527.6,122.1z M506,95.5C506,95.5,506,95.5,506,95.5L506,95.5z"/>
	<path class="st1" d="M534.7,136.2c4.5,1.5,3.5,5.9,1.6,8.6c-1.8,2.7-11.2,17.9-13.2,22c-1.7,3.5-1.8,9-1.8,10.3
		c0,0.8-0.8,0.7-1.3,0c-0.5-0.7-0.8-1.6-1.2-2.5c-1-1.7,0-3.4-1.4-5.8c-0.2-0.3-0.4-0.7-0.6-1c-1.5-2.7-0.1-4.4,0.8-4.4
		c0.9,0,2-0.4,2.3-0.6c3-2.6,4.9-12.9,4.9-12.9c-2.5,1.2-6.7,11.7-6.7,11.7c-1.3,0.9-1.5-2.5-1.8-4c-0.4-1.6,1-2.7,0.8-4.5
		c0-0.9-0.3-2.9-0.3-4.2c0-1.3,0.8-1.3,1.2-1.3c0.4-0.1,2.1,0.3,2.5,0.3c0.8,0,0.9-0.7,0.9-0.7c0.6-2,2.8-4.7,2.8-4.7
		c-1.5-0.8-4.2-0.1-4.2-0.1c-21.9,11.8-32-13.9-32-13.9c3,0.7,5.1,1.1,8.9,0c3.7-1.1,6.5-4.2,6.5-4.2c-0.6-4.2-2.2-10.8-1.5-13.9
		c0-2.6,2.1-5.1,2.9-6.9c0.6-1.2-0.1-2-0.1-2c-0.1-0.2-0.2-0.3-0.1-0.5c0.1-0.2,0.2-0.5,0.3-0.8c0.1-0.3,0.2-0.4,0.4-0.3
		c0.1,0,0.7,0.3,0.7,0.3c0.5-1.4-0.7-2.9-1.9-4.3c-1.2-1.4-1.8-5.5-1.8-5.5c-1.3,0.2-1.4-0.6-1.4-0.6c-1,1.5,0.1,4.7,0.4,6.2
		c0.1,0.5,0.2,1.1,0.2,1.8c0,2-1.5,3.6-3.4,3.6c-1.9,0-3.4-1.6-3.4-3.6c0-0.2,0-0.4,0-0.6c0.6,0.8,1.6,1.2,2.3,0.9
		c0.7-0.3,1-1,1-1.8c0-1.5-0.3-3.7-0.5-5.8c-0.2-3.1,3.1-2.6,3.1-2.6c0.4-1.6,3.2-1.4,3.2-1.4c1.5-1.9,3.4-3.4,6-3.7
		c2.6-0.3,4.6,1.3,4.6,1.3c7.1,1,7.1,4.7,7,6.2c-0.1,1.5-2,2-2,2c-0.6,0.8-1.4,0.9-1.4,0.9s0.2,1.2,0.2,1.3c0,0.1,0.1,0.5,0.2,0.7
		c0.2,0.4,0.9,1.3,1,1.4c0.2,0.2,0.1,0.6-0.3,0.7c-0.3,0.1-0.4,0.1-0.5,0.2c-0.1,0-0.3,0.1-0.2,0.4c0,0.3,0.1,0.4,0.1,0.5
		c0,0.1,0.1,0.2-0.2,0.2c-0.3,0-0.9,0.1-0.9,0.1s0.5,0.5,0.5,0.5c0.1,0.1,0.2,0.1,0,0.2c-0.1,0.1-0.3,0.3-0.4,0.6
		c-0.1,0.5,0,1.1-0.5,1.5c-0.8,0.7-2.6,0.1-4.3-0.1c-1.3-0.1-0.4,1.7-0.4,1.7c0.5,0.2,2.7,1.4,2.8,3c0.1,1.2-1,0.8-1.6,2.2
		c-0.3,0.6-0.2,1.3,0,1.7c0.6,1,4.3,6.8,7,9.3c2.2,2.5,5.8,5.3,5.8,5.3c11.4-0.6,10.1,5.2,9.6,7.1
		C535.8,133.7,534.7,136.2,534.7,136.2 M522,126c-0.6-0.7-2.1-2.2-3.1-3c-1.2-1-3.1-2.9-3.1-2.9s-0.5,3.3-1.7,4.5
		c0,0,1.1,2.9,1.1,4.2c0,0,0.9-0.8,4.2-1.8C520.8,126.3,522.2,126.1,522,126z"/>
	<g>
		<path class="st0" d="M50.9,221.5c-5.9,0-10.8,4.7-10.8,10.6c0,5.8,4.8,10.6,10.8,10.6c6,0,10.8-4.8,10.8-10.6
			C61.8,226.2,56.9,221.5,50.9,221.5 M50.9,241.4c-5.3,0-9.6-4.2-9.6-9.4c0-5.2,4.3-9.4,9.6-9.4c5.3,0,9.6,4.2,9.6,9.4
			C60.5,237.2,56.3,241.4,50.9,241.4z"/>
		<path class="st0" d="M56.3,229.2c0-1.7-1.2-3.8-4.5-3.8h-5.5v13h2.8V233h2.2l2.5,5.4h3l-2.8-5.9C55.4,231.9,56.3,230.6,56.3,229.2
			 M50.4,230.8h-1.3v-3.2h1.1c1.4,0,3.3-0.2,3.3,1.6C53.5,230.9,51.6,230.8,50.4,230.8z"/>
	</g>
	<g>
		<path class="st1" d="M91.7,269.2l0.1,4l-10.7,2.7l-0.2,11.2l9.9-2.4l0,3.5l-9.9,2.5l0,11.9l11.5-2.7l0.1,3.7L74.9,308l0-34.8
			L91.7,269.2z"/>
		<path class="st1" d="M103,266.5l0.6,34.5l-5.2,1.1l-0.6-34.5L103,266.5z"/>
		<path class="st1" d="M132.2,271.7c-1-0.1-2.4-0.3-4,0c-2.3,0.5-3.4,2.1-3.1,3.6c0.2,1,0.9,1.7,3.2,3.2l1,0.6
			c2.4,1.7,4.7,3.2,5.3,6.1c0.8,3.4-0.9,8.2-7.2,9.6c-3.5,0.8-6.1-0.1-7-0.3l0.8-3.1c1.1,0.3,3,0.8,5.3,0.3c2.5-0.6,3.6-2.4,3.1-4.2
			c-0.3-1.5-1.5-2.3-3.7-3.8l-1-0.7c-3.4-2.3-4.3-3.7-4.7-5.5c-0.9-3.8,2.1-7.8,7.1-8.9c0.6-0.1,2.7-0.6,5.5-0.1L132.2,271.7z"/>
		<path class="st1" d="M157.4,287l-5.1,1.1l0-7.2c-0.7,2.2-2.4,8.3-7.3,9.3c-3.1,0.6-5.8-1.1-6.8-5.7c-1.5-7.1,1.6-19.4,11.7-21.6
			c2.5-0.5,4.8-0.4,7.3,0.2L157.4,287z M149.8,266c-5.4,1.1-7,11.8-5.9,17.2c0.1,0.6,0.6,2.9,2.7,2.5c2.2-0.5,3.4-4,3.7-5.2
			c0.7-2.8,1.6-7.5,1.6-14.5C151.5,265.9,150.8,265.8,149.8,266z"/>
		<path class="st1" d="M168.6,247.5l0.3,18.4c1.2-4.2,3.5-7.9,7.1-8.7c3.6-0.8,6,1.9,6.8,5.4c1.7,7.7-1.3,19.7-11.5,22
			c-3.7,0.8-6.5,0.3-7.6,0.1l-0.7-35.9L168.6,247.5z M171.3,281.4c6.3-1.4,6.6-13.8,5.8-17.3c-0.2-0.9-0.8-2.8-2.6-2.4
			c-1.7,0.4-2.8,2.7-3.5,4.6c-1.8,5-1.9,12.6-1.9,15.3C169.8,281.6,170.4,281.6,171.3,281.4z"/>
		<path class="st1" d="M197.2,253.4c5.3-1.1,8.9,2,9.9,7.1c1.3,6.6-1,17.4-10,19.2c-5,1-9-1.9-10.1-7.4
			C185.2,263.3,190.1,254.8,197.2,253.4z M197,276.6c5-1,4.7-13.2,4-16.7c-0.3-1.7-1.4-3.9-3.6-3.5c-4.7,0.9-5.2,11.5-4.1,16.7
			C193.3,273.7,194,277.2,197,276.6z"/>
		<path class="st1" d="M217.9,250.5l-0.1,9.2c0.8-3.9,2.7-10.2,6.5-10.9c0.4-0.1,0.8,0,1.1-0.1l-0.1,5.1c-0.5,0-0.7,0-1.4,0.1
			c-4.3,0.8-6.4,12.8-6.2,21.7l-5.4,1l0.4-25.2L217.9,250.5z"/>
		<path class="st1" d="M257,265.8c-3.3,2.7-5.9,4.4-9.1,4.9c-4,0.6-7.8-1.4-8.6-6.6c-1.2-7.7,4.4-18.8,12.5-20
			c3.9-0.6,5.5,1.6,5.8,3.7c1,6.4-6.6,9.4-12.4,10.8c-0.6,5,0.2,8.9,3.6,8.4c1.3-0.2,3-0.9,6.1-3.6L257,265.8z M253.2,248.8
			c-0.2-1.3-1-1.8-2-1.6c-1.8,0.3-4.4,3.2-5.6,8.6C249.5,254.9,253.8,252.7,253.2,248.8z"/>
		<path class="st1" d="M274.3,245c-0.9-0.2-2.4-0.5-4-0.3c-2.3,0.3-3.6,1.8-3.4,3.4c0.1,1,0.8,1.8,2.9,3.5l0.9,0.7
			c2.3,1.8,4.4,3.6,4.8,6.5c0.5,3.5-1.6,8.1-8,9c-3.6,0.5-6-0.6-6.9-0.9l1-3.1c1,0.4,2.9,1.1,5.3,0.7c2.5-0.4,3.7-2.1,3.5-4
			c-0.2-1.5-1.3-2.4-3.4-4.1l-1-0.8c-3.2-2.6-4-4.1-4.3-5.9c-0.5-3.9,2.7-7.6,7.8-8.3c0.6-0.1,2.8-0.4,5.5,0.4L274.3,245z"/>
		<path class="st1" d="M299.5,238.1l-0.2,25.1l-5.6,0.7l0.2-25.1L299.5,238.1z M300.6,231.1l-3.8,3.6l-3.7-4.2l3.8-3.6L300.6,231.1z
			"/>
		<path class="st1" d="M311.7,236.5l-0.2,7.2c0.7-1.9,2.7-8,7.9-8.5c5.7-0.6,5.8,5.2,5.7,7.7l-0.5,17.3l-5.6,0.7l0.4-17.4
			c0.1-2.5-0.2-4.2-2-4c-2.5,0.3-4.3,5.4-4.6,6.7c-1,4.4-1.4,8.9-1.6,15.4l-5.4,0.7l0.6-25.2L311.7,236.5z"/>
		<path class="st1" d="M343,224.5c-0.4-0.1-1.1-0.2-1.9-0.1c-2.5,0.2-3,2.4-3.1,5.8l-0.2,3.5l4.2-0.4l-0.1,3.1l-4.2,0.4l-0.7,16
			c-0.4,8.3-0.7,15.5-8.4,16.2c-1.3,0.1-2.1,0-2.7-0.1l0.2-3c0.5,0.1,1.1,0.2,1.9,0.1c3.2-0.3,3.8-3.5,3.9-11.8l0.4-16.8l-3.7,0.3
			l0.1-3.1l3.6-0.3l0.2-3.1c0.1-2.6-0.1-9,7.4-9.6c1.6-0.1,2.3-0.1,3.5,0.2L343,224.5z"/>
		<path class="st1" d="M352.2,232.2l-0.9,24.9l-5.6,0.7l0.9-25.1L352.2,232.2z M353.6,225.3l-3.9,3.4l-3.6-4.3l3.9-3.4L353.6,225.3z
			"/>
		<path class="st1" d="M364.4,231.1l-0.3,7.2c0.7-1.9,2.8-7.8,8-8.1c5.8-0.3,5.7,5.4,5.6,7.9l-0.7,17.1l-5.6,0.5l0.6-17.2
			c0.1-2.5-0.2-4.2-1.9-4.1c-2.5,0.1-4.4,5.2-4.7,6.5c-1.1,4.3-1.5,8.8-1.7,15.3l-5.5,0.5l0.9-25.1L364.4,231.1z"/>
		<path class="st1" d="M390.1,229.4l-0.6,24.9l-5.6,0.4l0.6-25L390.1,229.4z M391.5,222.6l-3.9,3.3l-3.6-4.4l3.9-3.2L391.5,222.6z"
			/>
		<path class="st1" d="M404.3,222l-0.2,6.6l4.3-0.1l-0.1,3.1l-4.3,0.1l-0.5,15.2c-0.1,3.2,0.5,3.4,1.5,3.4c0.9,0,1.8-0.4,2.7-0.9
			l1.6,2.9c-0.9,0.4-3.2,1.5-6,1.6c-3,0.1-5.6-1.5-5.5-5.9l0.5-16.1l-3.5,0.1l0.1-3.1l3.9-0.1l0.2-6.6L404.3,222z"/>
		<path class="st1" d="M422.1,227.6c5.4,0,9,3.6,10,8.8c1.2,6.7-1.3,16.9-10.4,17c-5,0-9.1-3.5-10.1-9.1
			C409.8,235,414.9,227.6,422.1,227.6z M421.6,250.3c5,0,4.9-12.1,4.3-15.7c-0.3-1.7-1.3-4.1-3.6-4.1c-4.7,0-5.4,10.3-4.4,15.7
			C417.9,246.8,418.6,250.3,421.6,250.3z"/>
	</g>
</g>
<g>
	<rect x="337.5" y="355" class="st1" width="34" height="42"/>
	<text transform="matrix(1 0 0 1 393.4897 376.9805)" style="font-family:'Myriad-Roman'; font-size:12px;">PANTONNE 072C</text>
</g>
<g>
	<rect x="164.5" y="355" class="st2" width="34" height="42"/>
	<text transform="matrix(1 0 0 1 220.4897 385.9805)" style="font-family:'Myriad-Roman'; font-size:12px;">PANTONNE 485C</text>
</g>
</svg>
