<?xml version="1.0" encoding="utf-8"?>
<!-- Generator: Adobe Illustrator 26.5.1, SVG Export Plug-In . SVG Version: 6.00 Build 0)  -->
<svg version="1.1" id="Capa_1" xmlns="http://www.w3.org/2000/svg" xmlns:xlink="http://www.w3.org/1999/xlink" x="0px" y="0px"
	 viewBox="0 0 763.9 212.3" style="enable-background:new 0 0 763.9 212.3;" xml:space="preserve">
<style type="text/css">
	.st0{fill:#E6E5E5;}
</style>
<path class="st0" d="M696.9,168.5c-6.2,0-11.7-0.2-17.1,0.1c-2.9,0.2-3.7-1.7-4.9-3.3c-12.1-16.6-24.4-33-38-48.4
	c-0.8-0.9-1.6-1.7-2.4-2.6c-2-2.2-4.8-1.6-7-1c-1.9,0.5-0.8,2.9-0.9,4.4c-0.4,15.5,0.5,31,1.1,46.5c0.2,4-1,5-4.6,4.3
	c-0.3-0.1-0.7,0-1,0c-3.4-0.1-8.2,1.2-10-0.6c-2.2-2.2-0.5-6.8-0.4-10.4c1.3-33.2,1.3-66.4-0.3-99.5c-0.2-4.6,0.9-6,5.5-5.3
	c10.1,1.4,20.2,0.3,30.4-0.1c6.7-0.3,13.3,0.1,19.7,2.1c17.3,5.3,24.2,24.4,14.2,39.4c-7,10.5-17.8,14.8-30.5,17.6
	C665.9,130.6,680.5,149.6,696.9,168.5z M627.5,82.7c-0.3,0-0.6,0-1,0c0,6.6,0,13.2,0,19.8c0,1.3-0.7,2.9,1.5,3.7
	c10.4,3.8,30.8-1.7,37.7-10.4c10.9-13.7,4.1-32.7-12.9-36.3c-7.4-1.6-14.9-0.8-22.4-0.5c-2.3,0.1-3.1,1.1-3,3.4
	C627.6,69.1,627.5,75.9,627.5,82.7z"/>
<path class="st0" d="M186.9,89.1c-0.1,17.3-1.1,31.6,1.4,45.9c3.2,18.5,14.6,28.2,33.6,28.6c23.7,0.5,37.1-11,39.2-34.6
	c2.1-23.9,1.2-47.8,0.3-71.7c-0.1-3.9,0.3-5.9,4.4-4.1c2.4,1,5.6-2.4,6.9,0.8c0.8,2-0.4,4.8-0.5,7.3c-0.8,20.1-1.5,40.3-2.2,60.4
	c-0.2,6-0.8,11.9-2.4,17.6c-5.3,18.2-18.5,29.3-37.5,31.2c-8.6,0.9-17.3,0.7-25.8-1.1c-19-4-29.6-16.8-31.1-37.1
	c-0.6-8.4-0.3-16.8,0.1-25.2c0.8-16.8,0.3-33.7-0.8-50.5c-0.2-3.3,0.5-4.4,3.9-3.8c2.3,0.4,4.8,0.8,6.9,0.3c4.3-1.1,5.4-0.1,5,4.4
	C187.6,68.9,187.3,80.5,186.9,89.1z"/>
<path class="st0" d="M514.5,110.1c0.6-17.8-0.3-35.6-1-53.4c-0.2-3.5,0.6-4.5,4.2-4.2c17.4,1.1,34.9,1,52.3,0c7-0.4,2.7,4.7,3.5,7.2
	c1.2,3.8-2.1,2.7-3.9,2.5c-11.9-0.8-23.9-1.6-35.8-1.8c-3.6,0-4.9,0.7-4.9,4.5c0.2,11.9,0,23.8-0.2,35.6c0,2.8,0.7,3.7,3.6,3.6
	c11.1-0.5,22.3-0.7,33.4-1.4c3.2-0.2,5.2-0.3,4.1,3.7c-0.2,0.8-0.2,1.7,0,2.5c0.7,2.8-0.2,3.5-3.2,3.4c-11.1-0.6-22.3-0.6-33.4-1.2
	c-3.9-0.2-4.7,1.2-4.6,4.7c0.2,13.9,0.2,27.7,0.1,41.6c0,3.1,1,3.9,4,3.8c12.8-0.2,25.6,0,38.3-1.5c1.8-0.2,4.6-1.1,3.5,2.4
	c-0.7,2.2,3,6.6-3.2,6.5c-18.1-0.2-36.2-0.1-54.3,0c-3,0-3.5-0.8-3.4-3.6C514.2,146.8,515.1,128.5,514.5,110.1z"/>
<path class="st0" d="M74.4,112.1c1-18.7,0.5-37.3-0.6-55.9c-0.2-3.3,0.9-3.8,3.8-3.7c18.4,1.1,36.9,0.9,55.4,0
	c7.2-0.3,2.5,4.8,3.3,7.3c1.2,3.6-1.9,2.2-3.6,2.2c-13.3-0.4-26.6-0.8-39.9-1.4c-2.9-0.1-3.5,1-3.6,3.6c-0.8,12.1-0.5,24.1-0.3,36.1
	c0.1,3.1,1.1,3.9,4.1,3.8c11.8-0.3,23.6-0.4,35.4-1.6c3.3-0.3,4.1-0.1,4.3,3.7c0.2,5.4-1.2,6.3-6.3,5.7c-11.2-1.3-22.6-0.5-33.9-0.8
	c-3-0.1-3.5,1-3.4,3.7c0.2,16.5,0.1,33,1.3,49.5c0.3,3.4-0.3,4.9-4.1,4.3c-4-0.7-9.6,1.8-11.9-0.9c-1.9-2.2,0-7.5,0-11.5
	C74.4,141.5,74.4,126.8,74.4,112.1z"/>
<path class="st0" d="M318.6,110.1c0-18-0.1-36-1.4-53.9C317,53,318,52,321,52.8c3.1,0.8,6.3,0.6,9.4-0.1c2.5-0.5,3.6,0,3.4,2.9
	c-2.2,33.5-1,66.9-0.8,100.4c0,4.1,1.1,5.2,5.2,5.1c12.6-0.5,25.3-0.1,37.8-1.6c2.6-0.3,3.5-0.5,3.8,3.2c0.6,6.4-2.5,5.9-6.9,5.9
	c-17.3-0.2-34.6-0.1-51.8,0.1c-3.4,0-4.1-0.9-3.9-4.1C318.5,146.4,318.6,128.3,318.6,110.1z"/>
<path class="st0" d="M416.6,111.1c0.5-18.7-0.4-36.8-1.2-54.9c-0.1-3.4,0.9-4.1,3.8-3.4c2.8,0.7,5.6,0.8,8.4,0
	c3.7-1,4.4,0.4,4.2,3.9c-2.1,33.1-0.8,66.3-0.9,99.5c0,3.8,0.9,5.1,4.9,5c12.8-0.5,25.6-0.1,38.3-1.6c2.5-0.3,3.3-0.2,3.7,3
	c0.6,5.9-1.9,6.2-6.8,6.1c-16.6-0.3-33.2-0.4-49.9,0.1c-5.3,0.1-6-1.3-5.7-6.2C416.3,145.2,417.1,127.9,416.6,111.1z"/>
</svg>
