<?xml version="1.0" encoding="UTF-8"?>
<svg id="Capa_2" data-name="Capa 2" xmlns="http://www.w3.org/2000/svg" viewBox="0 0 337.38 130">
  <defs>
    <style>
      .cls-1 {
        fill: #f0eff0;
      }

      .cls-2 {
        fill: #e1e0e0;
      }

      .cls-3 {
        fill: #fefefe;
      }
    </style>
  </defs>
  <g id="Capa_1-2" data-name="Capa 1">
    <path class="cls-2" d="m242.58,59.42h-41.2q-3.1,0-3-3c0-4.3.1-8.6,0-12.9-.1-3.6.3-6.9,1.9-10.2,4.9-10.2,10-20.1,18.4-27.9,3.3-3.1,7.2-4.7,11.8-4.9,27.9-1,55.9-.2,83.8-.4q3.4,0,3.4,3.2c0,7.7-.1,15.3,0,23,0,2-.6,2.5-2.6,2.5-25.5-.1-51,0-76.4,0-1,0-2.1-.3-2.9.6-.9,1-2.3,2.1-1.9,3.3.2.9,2,.3,3,.3h82.4q3.6,0,3.6,3.6c0,4.6-.2,9.3,0,13.9.2,3.5-1.1,6.4-2.6,9.3-1.8,3.5-3.9,6.9-5.7,10.5-1,1.9-2.8,3.2-3.9,5.1-2.4,4.2-5.9,7.3-9.8,10.1-5.7,4-12,6.2-18.9,6.4-5.3.2-10.5-.1-15.8.1-11.2.5-22.3.1-33.5.6-8.1.4-16.1,0-24.1.4-2.8.1-5.5.4-8.3.4-1.4,0-2-.4-2-1.9.1-7.8.1-15.6,0-23.5,0-1.9.9-2,2.4-2h80.1c2.8,0,6-2.9,6.2-5.7.1-.7-.3-1-1-1h-1.9c-13.9.1-27.7.1-41.5.1Zm4.1-3.4h43.4c.9,0,1.3.4,1.2,1.3-.5,4-2,7.5-4.5,10.6-1.1,1.4-2.4,2-4.3,2-25.9-.1-51.8,0-77.6-.1-2.1,0-2.8.5-2.7,2.6.2,4.9.2,9.7,0,14.6-.1,2.1.7,2.6,2.6,2.5,4-.2,7.9-.2,11.9-.4,9.6-.5,19.1-.2,28.7-.4,12.1-.3,24.2-.7,36.4-.7,4.4,0,8.6-1,12.6-2.9,8.4-4,13.4-11.3,18.6-18.5,2.7-3.7,3.9-8,5.7-12.1.3-.6.5-1.2.5-1.8.2-4.4.2-8.7.5-13.1.2-2.3-.6-2.9-2.9-2.9-27.9.1-55.8.1-83.6.1-5.3,0-5.5-.1-3.3-4.9,2.9-6.3,4.1-6.7,9.8-6.7,23.9.1,47.8,0,71.6.1,2.1,0,2.8-.5,2.7-2.7-.2-5.7-.1-11.3,0-17,0-1.4-.4-2-1.9-2-7.7,0-15.5-.2-23.2-.3-19.4-.3-38.7-.3-58.1.7-4.9.3-8.5,2.5-11.5,5.7-3.4,3.6-6.3,7.9-9.1,12.1-.8,1.3-.9,2.8-1.7,4.1-3.2,4.8-6.5,9.6-6.3,15.8.2,3.8.1,7.7,0,11.5-.1,2.1.5,2.7,2.6,2.7,13.9.1,27.9.1,41.9.1Z"/>
    <path class="cls-2" d="m193.98,46.72v43.1c0,2.1-.5,2.7-2.7,2.7-10.8-.1-21.7-.4-32.5-.7-6.9-.2-13.3-3.3-18.9-7.6-4.6-3.5-9-7.4-12.5-12.1-.9-1.2-1.2-.1-1.7.4-4.2,5.1-8.7,10-14.4,13.5-6,3.7-12.3,6.1-19.6,5.9-6.6-.2-13.3-.1-19.9,0-2.9,0-5.7.4-8.6.5-2.1,0-2.7-.5-2.7-2.7.1-16.3.1-32.6.1-48.8V3.62c0-2,.4-2.8,2.6-2.7,8.2.1,16.5.1,24.7,0,2,0,2.5.6,2.5,2.6-.1,19.9,0,39.9,0,59.8,0,3,0,2.8,2.9,1.8,8.5-2.9,14-9.2,18.4-16.7.6-1,.8-2,.8-3.2,0-9.6.2-19.2-.1-28.7-.1-4.4-.2-8.9-.4-13.4-.1-1.8.6-2.3,2.3-2.3,9.2.1,18.4.1,27.6,0,1.8,0,2.3.6,2.3,2.3-.1,13.2.3,26.5-.2,39.7-.2,5.5,2.2,9.4,5.4,13.2,3.2,3.9,7.5,6.2,12,8.1,2.1.9,2.9.3,2.9-1.9,0-9.3.4-18.7-.1-28-.5-10.4-.1-20.7-.4-31.1-.1-1.9.6-2.4,2.4-2.4,8.5.1,16.9.1,25.4,0,1.9,0,2.4.6,2.4,2.4v43.6Zm-3.8,0V7.22c0-1.3.2-2.5-1.8-2.5-6.3.1-12.6.1-18.9,0-1.4,0-1.8.5-1.8,1.8.1,3.4,0,6.7,0,10.1-.1,16.5,0,33,.5,49.5.1,2-.7,2.5-2.5,2.3-2.8-.3-5.5-1-8-1.9-5-1.8-9-5.1-12.3-9.2-2.6-3.3-5.3-6.5-5.1-11.4.3-12.8,0-25.7.2-38.5,0-2.3-.7-2.8-2.8-2.8-6.4.1-12.8.1-19.2,0-2,0-2.5.6-2.5,2.6.1,13,0,26,.1,39,0,2.3-.8,4.3-2.2,6.1-.8,1-1.5,2.1-2.2,3.1-2.2,3.3-4.9,6.4-8.3,8.6-3.8,2.5-8,4.2-12.4,5.4-3.7,1-3.8.9-3.8-3.1V6.72c0-2-.5-2.8-2.5-2.5-5.7.8-11.5.5-17.2.4-2.3,0-2.9.7-2.9,3,.1,25.5,0,50.9,0,76.4,0,.7.2,1.5,0,2.1-.9,2.3.2,2.5,2.1,2.4,10.1-.2,20.3-.3,30.4-.6,3.3-.1,6.4-1.4,9.2-2.9,7.9-4.4,13.7-11.1,19.1-18.2.9-1.2,1.4-1.5,2.4-.2,3.2,4.1,6.3,8.4,10.6,11.5,4.5,3.2,8.6,7,14.3,8.5,3.3.8,6.4,1.4,9.8,1.4,8.4-.1,16.7.7,25.1.5,2.1,0,2.7-.5,2.7-2.7-.2-12.9-.1-26-.1-39.1Z"/>
    <path class="cls-2" d="m.88.52h49.4c3.8.2,3.8.3,3.8,4,0,28.6,0,57.3.1,85.9,0,2.4-.6,3.1-3,3.1-7.7-.2-15.3-.1-23,0-2.1,0-2.8-.5-2.8-2.8.1-19.7,0-39.4.1-59.1,0-2.3-.7-2.9-3-2.9-6.6.1-13.3,0-19.9.1-1.7,0-2.2-.5-2.2-2.2C.48,18.22.38,9.82.38,1.52c.2-.4.3-.7.5-1Zm49.3,46.9V6.72c0-1.6-.1-2.5-2.1-2.5-14,.1-27.9.1-41.9,0-1.6,0-2.1.5-2,2.1.1,5.4.1,10.8,0,16.3-.1,2,.8,2.4,2.5,2.3,6.1-.1,12.3,0,18.4,0,3.5,0,4,.5,4,4v56.7c0,.8,0,1.6-.2,2.4-.6,1.8.2,2.1,1.7,2.1,5.7,0,11.3-.1,17,0,2.2.1,2.7-.6,2.6-2.7v-40Z"/>
    <path class="cls-2" d="m161.78,101.52H1.98c-.9,0-1.6-.1-1.5-1.3,0-1,.7-1.1,1.5-1.1h318.5c1,0,3-1,3,1.1s-1.9,1.2-3,1.2c-53,.1-105.9.1-158.7.1Z"/>
    <path class="cls-2" d="m161.38,129.82H3.48c-1,0-2.9.8-2.9-.9,0-1.8,1.9-.9,2.9-.9h316.6c1,0,3-.7,3,.8,0,1.8-2,1-3.1,1-52.9,0-105.8,0-158.6,0Z"/>
    <path class="cls-2" d="m322.48,14.52c0-4.4,3-7.3,7.6-7.3,3.8,0,7.3,3.5,7.3,7.4s-3.4,7.4-7.2,7.5c-4.8-.1-7.7-3-7.7-7.6Zm12.9.1c0-3.6-2.2-6-5.7-6-3.2,0-5.8,2.6-5.9,6,0,3.3,2.6,6,5.8,6,3.6,0,5.8-2.4,5.8-6Z"/>
    <path class="cls-1" d="m.88.52c-.2.3-.3.6-.5.9C-.42.62.18.62.88.52Z"/>
    <path class="cls-3" d="m246.68,56.02c-14,0-28,0-41.9.1-2.2,0-2.7-.6-2.6-2.7.2-3.8.2-7.7,0-11.5-.3-6.2,3-11,6.3-15.8.9-1.3.9-2.8,1.7-4.1,2.8-4.2,5.6-8.5,9.1-12.1,3-3.1,6.6-5.4,11.5-5.7,19.4-1,38.7-1,58.1-.7,7.7.1,15.5.3,23.2.3,1.5,0,1.9.6,1.9,2-.1,5.7-.1,11.3,0,17,.1,2.2-.6,2.7-2.7,2.7-23.9-.1-47.8,0-71.6-.1-5.7,0-6.9.4-9.8,6.7-2.2,4.8-2,4.9,3.3,4.9,27.9,0,55.8,0,83.6-.1,2.3,0,3.1.6,2.9,2.9-.3,4.4-.3,8.7-.5,13.1,0,.6-.2,1.3-.5,1.8-1.9,4.1-3,8.4-5.7,12.1-5.2,7.2-10.2,14.5-18.6,18.5-4,1.9-8.2,2.9-12.6,2.9-12.1-.1-24.2.4-36.4.7-9.6.2-19.1-.1-28.7.4-4,.2-8,.3-11.9.4-1.9.1-2.7-.4-2.6-2.5.1-4.9.2-9.7,0-14.6-.1-2.2.7-2.6,2.7-2.6,25.9.1,51.8,0,77.6.1,1.9,0,3.2-.6,4.3-2,2.5-3.1,4-6.7,4.5-10.6.1-.9-.3-1.3-1.2-1.3h-1.9c-13.9-.2-27.7-.2-41.5-.2Zm23.6-16.2h-43.4c-1.3,0-2.2.1-1.9-1.9.3-1.8.7-3.5,1.5-5.2,3.3-7.8,7.8-10.8,14.3-10.7,22.5.2,45.1.1,67.6.1,2.1,0,2.8-.6,2.7-2.7-.2-3.3-.2-6.7,0-10,.1-2.1-.5-2.7-2.7-2.7-16.2.1-32.4,0-48.6,0-9.5,0-18.9,0-28.4.2-1.8,0-3.8.2-5.5,1.2-3.7,2.1-6.3,5.4-8.8,8.6-2.1,2.7-3.5,6-5.3,8.9-2.5,3.8-3.8,8.2-6.4,12-.3.4-.3.8-.3,1.4.1,3.4.1,6.9.2,10.3,0,3.8-.4,3.5,3.5,3.5h83.2c1.9,0,2.6.5,2.6,2.5-.1,5.6-2,10.6-5.3,15-1.4,1.9-3.2,2.7-5.8,2.7-23.7-.1-47.4-.1-71.2-.1h-5.3c-1.2,0-1.7.4-1.7,1.7.1,2.5,0,4.9,0,7.4,0,1.5-.6,3.3.3,4.4,1,1.2,2.5-.1,3.9-.1,6.1-.1,12.1,0,18.2-.3,10.3-.5,20.6-.2,30.9-.5,7.9-.3,15.8-.1,23.7-.1,4.8,0,9-1.4,13-3.9,7.4-4.5,12-11.4,16.5-18.5,3.8-6,5.3-12.4,4.8-19.4-.3-3.6-.1-3.6-3.6-3.6-14.4-.2-28.6-.2-42.7-.2Z"/>
    <path class="cls-3" d="m190.18,46.72c0,13.1-.1,26.2.1,39.3,0,2.1-.6,2.6-2.7,2.7-8.4.2-16.7-.6-25.1-.5-3.3,0-6.5-.6-9.8-1.4-5.7-1.4-9.8-5.2-14.3-8.5-4.3-3.1-7.4-7.4-10.6-11.5-1-1.3-1.6-1-2.4.2-5.4,7.1-11.2,13.8-19.1,18.2-2.8,1.6-6,2.8-9.2,2.9-10.1.3-20.3.4-30.4.6-1.9,0-3-.2-2.1-2.4.2-.6,0-1.4,0-2.1V7.82c0-2.3.6-3,2.9-3,5.7.1,11.5.4,17.2-.4,2-.3,2.5.5,2.5,2.5-.1,19.9,0,39.7,0,59.6,0,4,0,4.1,3.8,3.1,4.4-1.2,8.6-3,12.4-5.4,3.3-2.2,6-5.2,8.3-8.6.7-1.1,1.4-2.1,2.2-3.1,1.4-1.8,2.2-3.8,2.2-6.1,0-13,0-26-.1-39,0-2,.5-2.6,2.5-2.6,6.4.1,12.8.1,19.2,0,2.1,0,2.9.5,2.8,2.8-.1,12.8.1,25.7-.2,38.5-.1,4.9,2.5,8.1,5.1,11.4,3.2,4.1,7.3,7.3,12.3,9.2,2.6.9,5.3,1.6,8,1.9,1.8.2,2.5-.3,2.5-2.3-.5-16.5-.6-33-.5-49.5V6.72c0-1.3.4-1.8,1.8-1.8,6.3,0,12.6.1,18.9,0,2.1,0,1.9,1.2,1.8,2.5,0,13,0,26.2,0,39.3Zm-2.9-.1V10.22c0-1.9-.4-2.7-2.5-2.6-3.9.2-7.8.2-11.7,0-2.2-.1-2.7.7-2.6,2.7.3,7.6-.1,15.3.4,22.9.5,7.8.1,15.6.1,23.5v12.7c0,1,0,1.9-1.4,1.9-5.5.3-10.7-.6-15.6-3.2-5-2.6-8.9-6.3-12.1-10.8-2.9-4-4.7-8.1-4.5-13.3.4-11.3.1-22.7.1-34,0-1.9-.5-2.5-2.4-2.4-3.7.1-7.5,0-11.3,0q-5,0-4.6,4.9v33.7c0,.7.1,1.5-.2,2.1-3.9,6.9-7.8,13.8-14.7,18.4-5.4,3.5-11.1,6-17.6,6.5-2.6.2-3-.8-3-3.1.1-20,0-39.9.1-59.9,0-2.2-.7-2.9-2.8-2.8-3.7.2-7.5.1-11.3,0-1.8-.1-2.3.5-2.3,2.3.1,24.5.1,49,0,73.5,0,1.8.5,2.3,2.3,2.3,6.8.2,13.5-.6,20.3-.5,7.6.1,14.5-1.6,20.6-6.6,3.3-2.7,6.5-5.4,9.1-8.8,1.9-2.5,3.3-5.2,5-7.8.4-.6.9-1.5,1.8-1.4.9.1,1.4.9,1.5,1.7.4,2,1.9,3.3,3.1,4.7,3.4,3.7,6.9,7.3,10.8,10.5,4.8,4,10.3,7,16.8,7.6,8.6.7,17.2-.2,25.8.8,2.1.3,2.9-.4,2.8-2.7-.1-12.1,0-24.3,0-36.4Z"/>
    <path class="cls-3" d="m50.18,47.42v40c0,2.1-.5,2.8-2.6,2.7-5.7-.2-11.3-.1-17,0-1.5,0-2.3-.3-1.7-2.1.3-.7.2-1.6.2-2.4V28.92c0-3.5-.5-4-4-4-6.1,0-12.3-.1-18.4,0-1.8,0-2.6-.3-2.5-2.3.1-5.4.1-10.8,0-16.3,0-1.6.5-2.1,2-2.1,14,0,27.9.1,41.9,0,2,0,2.1.9,2.1,2.5v40.7Zm-2.9-.3V11.22c0-3.7,0-3.9-3.8-3.9-11.2-.1-22.4,0-33.5,0-1.6,0-2.5.6-2.4,2.4.1,3.4.1,6.9,0,10.3-.1,1.7.5,2.2,2.2,2.2,6.6-.1,13.3,0,19.9-.1,1.8,0,2.5.4,2.5,2.4-.1,6.3,0,12.6,0,18.9,0,13.6.1,27.1-.1,40.7,0,2.3.7,2.9,2.8,2.8,3.3-.2,6.7-.2,10.1,0,2,.1,2.5-.6,2.5-2.6-.2-12.5-.2-24.9-.2-37.2Z"/>
    <path class="cls-3" d="m335.38,14.62c0,3.6-2.3,5.9-5.7,6-3.2,0-5.8-2.7-5.8-6s2.6-6,5.9-6,5.7,2.4,5.6,6Zm-6.5.7c1.1,1,1.8,1.8,2.7,2.5.4.4,1.1.5,1.5.1.6-.6-.1-1-.4-1.3-1.1-.9-1.2-1.8-.3-3,.7-1.1.2-2.3-1.2-2.8-2.8-1.1-4.3-.2-4.3,2.7v3.3c0,.7.1,1.3,1,1.3.8,0,.9-.6.9-1.1,0-.5,0-.9.1-1.7Z"/>
    <path class="cls-3" d="m234.48,114.02c-1.5,0-3.3.5-3.1-2.2.1-1.7.6-2.3,2.2-2.1.6.1,1.3,0,1.9,0,1.3,0,2.6.1,2.6,2s-1,2.5-2.7,2.4c-.3-.2-.6-.1-.9-.1Z"/>
    <path class="cls-2" d="m270.28,39.82h42.4c3.5,0,3.4,0,3.6,3.6.5,7-1,13.4-4.8,19.4-4.5,7.1-9.1,14-16.5,18.5-4,2.5-8.2,3.9-13,3.9-7.9-.1-15.8-.2-23.7.1-10.3.4-20.6.1-30.9.5-6.1.3-12.1.2-18.2.3-1.3,0-2.9,1.3-3.9.1s-.3-2.9-.3-4.4c-.1-2.5,0-4.9,0-7.4,0-1.2.5-1.7,1.7-1.7,1.8.1,3.5,0,5.3,0,23.7,0,47.4,0,71.2.1,2.5,0,4.3-.8,5.8-2.7,3.4-4.4,5.2-9.4,5.3-15,0-2-.7-2.5-2.6-2.5-27.7.1-55.4,0-83.2,0-3.9,0-3.4.4-3.5-3.5,0-3.4-.1-6.9-.2-10.3,0-.5.1-1,.3-1.4,2.6-3.7,4-8.2,6.4-12,1.9-2.9,3.2-6.2,5.3-8.9,2.5-3.2,5.1-6.5,8.8-8.6,1.7-1,3.7-1.1,5.5-1.2,9.5-.2,18.9-.2,28.4-.2h48.6c2.1,0,2.8.6,2.7,2.7-.2,3.3-.2,6.7,0,10,.1,2.1-.5,2.7-2.7,2.7-22.5-.1-45.1.1-67.6-.1-6.5-.1-11,2.9-14.3,10.7-.7,1.7-1.1,3.4-1.5,5.2-.4,2,.5,1.9,1.9,1.9h13.7c10.2.2,20.1.2,30,.2Z"/>
    <path class="cls-2" d="m187.28,46.62c0,12.1-.1,24.3.1,36.4,0,2.3-.7,3-2.8,2.7-8.6-1-17.2-.1-25.8-.8-6.5-.5-11.9-3.6-16.8-7.6-3.9-3.2-7.4-6.8-10.8-10.5-1.2-1.3-2.7-2.7-3.1-4.7-.2-.8-.7-1.6-1.5-1.7-.9-.1-1.4.8-1.8,1.4-1.7,2.6-3.1,5.4-5,7.8-2.6,3.4-5.8,6.1-9.1,8.8-6,5-13,6.7-20.6,6.6-6.8-.1-13.5.7-20.3.5-1.8-.1-2.3-.6-2.3-2.3.1-24.5.1-49,0-73.5,0-1.8.5-2.4,2.3-2.3,3.8.1,7.5.2,11.3,0,2.2-.1,2.8.5,2.8,2.8-.1,20,0,39.9-.1,59.9,0,2.3.4,3.3,3,3.1,6.5-.5,12.2-2.9,17.6-6.5,6.9-4.5,10.8-11.4,14.7-18.4.3-.6.2-1.4.2-2.1V12.52q-.4-4.9,4.6-4.9c3.8,0,7.5.1,11.3,0,1.9-.1,2.4.5,2.4,2.4-.1,11.3.2,22.7-.1,34-.2,5.2,1.7,9.3,4.5,13.3,3.2,4.5,7.1,8.2,12.1,10.8s10.1,3.5,15.6,3.2c1.4-.1,1.4-.9,1.4-1.9v-12.7c0-7.8.4-15.7-.1-23.5-.5-7.7-.1-15.3-.4-22.9-.1-2,.4-2.8,2.6-2.7,3.9.2,7.8.2,11.7,0,2.1-.1,2.5.7,2.5,2.6-.1,12.2-.1,24.3-.1,36.4Z"/>
    <path class="cls-2" d="m47.28,47.12v37.1c0,2-.5,2.7-2.5,2.6-3.3-.2-6.7-.2-10.1,0-2.2.1-2.9-.5-2.8-2.8.1-13.6.1-27.1.1-40.7,0-6.3-.1-12.6,0-18.9,0-2-.6-2.4-2.5-2.4-6.6.1-13.3,0-19.9.1-1.7,0-2.2-.5-2.2-2.2.1-3.4.1-6.9,0-10.3-.1-1.8.8-2.4,2.4-2.4h33.5c3.8,0,3.8.2,3.8,3.9.2,12,.2,24,.2,36Z"/>
    <path class="cls-2" d="m328.88,15.32c-.1.8-.2,1.2-.2,1.7,0,.6-.1,1.1-.9,1.1-.9,0-1-.6-1-1.3v-3.3c0-2.9,1.5-3.9,4.3-2.7,1.4.6,1.9,1.7,1.2,2.8-.8,1.3-.7,2.1.3,3,.4.3,1.1.7.4,1.3-.4.4-1.1.3-1.5-.1-.7-.7-1.5-1.4-2.6-2.5Zm.7-1.5c.6-.1.9-.4.9-1.1,0-.6-.4-.7-1-.7s-.8.4-.8.9c.1.5.2.9.9.9Z"/>
    <path class="cls-3" d="m329.58,13.82c-.7,0-.8-.4-.8-.9s.3-.9.8-.9.9.1,1,.7c0,.7-.4,1-1,1.1Z"/>
    <g>
      <path class="cls-2" d="m14.78,123.32v-14.3h1.9v12.6h7.1v1.7h-9Z"/>
      <path class="cls-2" d="m36.38,123.32l5.5-14.3h2l5.9,14.3h-2.2l-1.7-4.3h-6l-1.6,4.3h-1.9Zm4.1-5.9h4.9l-1.5-4c-.5-1.2-.8-2.2-1-3-.2.9-.4,1.8-.8,2.7l-1.6,4.3Z"/>
      <path class="cls-2" d="m65.48,123.32v-12.6h-4.7v-1.7h11.3v1.7h-4.7v12.6h-1.9Z"/>
      <path class="cls-2" d="m86.38,123.32v-14.3h1.9v14.3h-1.9Z"/>
      <path class="cls-2" d="m103.58,123.32v-14.3h1.9l7.5,11.2v-11.2h1.8v14.3h-1.9l-7.5-11.2v11.2h-1.8Z"/>
      <path class="cls-2" d="m129.48,116.32c0-2.4.6-4.2,1.9-5.6s2.9-2,4.9-2c1.3,0,2.5.3,3.6.9s1.9,1.5,2.4,2.6.8,2.4.8,3.8c0,1.5-.3,2.8-.9,3.9s-1.4,2-2.5,2.6-2.2.9-3.5.9-2.6-.3-3.6-1-1.9-1.5-2.4-2.7-.7-2.1-.7-3.4Zm1.9,0c0,1.7.5,3.1,1.4,4.1s2.1,1.5,3.5,1.5,2.6-.5,3.5-1.5,1.4-2.4,1.4-4.3c0-1.2-.2-2.2-.6-3.1s-1-1.5-1.7-2-1.6-.7-2.6-.7c-1.3,0-2.5.5-3.5,1.4s-1.4,2.5-1.4,4.6Z"/>
      <path class="cls-2" d="m155.98,123.32l5.5-14.3h2l5.9,14.3h-2.2l-1.7-4.3h-6l-1.6,4.3h-1.9Zm4.2-5.9h4.9l-1.5-4c-.5-1.2-.8-2.2-1-3-.2.9-.4,1.8-.8,2.7l-1.6,4.3Z"/>
      <path class="cls-2" d="m182.88,123.32v-14.3h2.9l3.4,10.1c.3.9.5,1.7.7,2.1.2-.5.4-1.3.8-2.3l3.4-10h2.5v14.3h-1.9v-12l-4.2,12h-1.7l-4.1-12.2v12.2h-1.8v.1Z"/>
      <path class="cls-2" d="m211.58,123.32v-14.3h10.4v1.7h-8.5v4.4h7.9v1.7h-7.9v4.9h8.8v1.7h-10.7v-.1Zm3.9-15.2l1.3-2.7h2.3l-2.1,2.7h-1.5Z"/>
      <path class="cls-2" d="m236.98,123.32v-14.3h6.3c1.3,0,2.2.1,2.9.4s1.2.7,1.6,1.4.6,1.4.6,2.2c0,1-.3,1.9-1,2.6s-1.7,1.1-3,1.3c.5.2.9.5,1.1.7.6.5,1.1,1.1,1.6,1.9l2.5,3.9h-2.4l-1.9-3c-.6-.9-1-1.5-1.4-2s-.7-.8-1-1-.6-.3-.9-.4c-.2,0-.6-.1-1.1-.1h-2.2v6.4h-1.7Zm1.9-8h4.1c.9,0,1.5-.1,2-.3s.9-.5,1.1-.9.4-.8.4-1.3c0-.7-.2-1.2-.7-1.7s-1.3-.7-2.3-.7h-4.5v4.9h-.1Z"/>
      <path class="cls-2" d="m263.68,123.32v-14.3h1.9v14.3h-1.9Z"/>
      <path class="cls-2" d="m291.18,118.32l1.9.5c-.4,1.6-1.1,2.7-2.1,3.6s-2.3,1.2-3.8,1.2-2.8-.3-3.8-.9-1.7-1.5-2.2-2.7-.8-2.5-.8-3.8c0-1.5.3-2.8.9-3.9s1.4-2,2.4-2.5,2.2-.9,3.5-.9c1.4,0,2.6.4,3.6,1.1s1.7,1.8,2,3.1l-1.9.4c-.3-1-.8-1.8-1.4-2.3s-1.4-.7-2.4-.7c-1.1,0-2,.3-2.8.8s-1.3,1.2-1.6,2.1-.4,1.8-.4,2.7c0,1.2.2,2.3.5,3.2s.9,1.6,1.7,2,1.6.7,2.4.7c1.1,0,2-.3,2.7-.9s1.3-1.6,1.6-2.8Z"/>
      <path class="cls-2" d="m305.78,123.32l5.5-14.3h2l5.9,14.3h-2.2l-1.7-4.3h-6l-1.6,4.3h-1.9Zm4.1-5.9h4.9l-1.5-4c-.5-1.2-.8-2.2-1-3-.2.9-.4,1.8-.8,2.7l-1.6,4.3Z"/>
    </g>
  </g>
</svg>