<?xml version="1.0" encoding="utf-8"?>
<!-- Generator: Adobe Illustrator 26.5.1, SVG Export Plug-In . SVG Version: 6.00 Build 0)  -->
<svg version="1.1" id="Capa_1" xmlns="http://www.w3.org/2000/svg" xmlns:xlink="http://www.w3.org/1999/xlink" x="0px" y="0px"
	 viewBox="0 0 2500 833" style="enable-background:new 0 0 2500 833;" xml:space="preserve">
<style type="text/css">
	.st0{fill:#E6E5E6;}
	.st1{fill:#FFFFFF;}
</style>
<path class="st0" d="M0.5,0h2499v833H0.5V0z"/>
<path class="st1" d="M1088.4,280.8c-37.8,0-77.9,16.5-103.8,51.9v-44.8h-87.3v320.9h87.3V424.8c0-33,26-68.4,73.2-68.4
	c35.4,0,73.2,26,73.2,68.4v181.7h87.3V408.2C1220.5,335.1,1166.2,280.8,1088.4,280.8 M1845.8,285.5L1765.6,505l-80.2-219.5h-99.1
	l132.1,320.9h96.7l129.8-320.9H1845.8z M802.8,507.3c-37.8,28.3-59,33-92,33c-30.7,0-54.3-9.4-70.8-26L864.2,420
	c-4.7-35.4-18.9-66.1-37.8-89.7c-30.7-35.4-73.2-51.9-127.4-51.9c-96.8,0-169.9,70.8-169.9,165.2c0,96.8,73.2,165.2,179.3,165.2
	c59,0,120.3-28.3,148.7-61.4L802.8,507.3z M632.9,382.3c14.2-21.2,37.8-33,68.4-33c30.7,0,56.6,18.9,68.4,44.8l-153.4,63.7
	C611.7,427.1,621.1,401.2,632.9,382.3z M522,526.2H321.4V191.1h-89.7v415.3H522L522,526.2z M2103.1,611.2
	c-96.7,0-172.3-70.8-172.3-165.2c0-92,75.5-165.2,172.3-165.2c96.7,0,172.3,70.8,172.3,165.2
	C2277.7,540.4,2202.2,611.2,2103.1,611.2 M2103.1,356.3c-49.6,0-85,37.8-85,89.7c0,49.6,37.8,89.7,85,89.7c49.6,0,85-37.8,85-89.7
	C2190.4,396.4,2152.6,356.3,2103.1,356.3 M1425.8,611.2c-96.7,0-172.3-70.8-172.3-165.2c0-92,75.5-165.2,172.3-165.2
	c96.8,0,172.3,70.8,172.3,165.2S1522.6,611.2,1425.8,611.2 M1425.8,356.3c-49.6,0-85,37.8-85,89.7c0,49.6,37.8,89.7,85,89.7
	c49.6,0,85-37.8,85-89.7C1513.1,396.4,1475.4,356.3,1425.8,356.3 M2289.5,568.7h-14.2v-7.1h37.8v7.1h-14.2v37.8h-9.4V568.7z
	 M2322.5,561.6h9.4l14.2,21.2l14.2-21.2h9.4v47.2h-9.4v-33l-14.2,21.2l-14.2-21.2v33h-9.4V561.6z"/>
</svg>
