<?xml version="1.0" encoding="utf-8"?>
<!-- Generator: Adobe Illustrator 26.5.1, SVG Export Plug-In . SVG Version: 6.00 Build 0)  -->
<svg version="1.1" id="LogoGS-main" xmlns="http://www.w3.org/2000/svg" xmlns:xlink="http://www.w3.org/1999/xlink" x="0px"
	 y="0px" viewBox="0 0 397.4 235.9" style="enable-background:new 0 0 397.4 235.9;" xml:space="preserve">
<style type="text/css">
	.st0{fill:#E6E5E6;}
</style>
<g id="Grupo_1" transform="translate(35.113 55.987)">
	<path id="Trazado_1" class="st0" d="M133.6,156.5c3.9-0.5,7.4,2.2,8,6c0.1,0.9,0.1,1.9-0.2,2.8c-0.6,5.2-5.2,8.9-10.3,8.5h-6.2
		l2.7-17.3L133.6,156.5z M133.3,159.1H130l-1.9,12.2h3.2c3.7,0.3,7-2.5,7.3-6.3C139.2,161.2,137.4,159.1,133.3,159.1z"/>
	<path id="Trazado_2" class="st0" d="M161.7,156.5l-0.4,2.6h-9.1l-0.7,4.7h8.4l-0.4,2.6H151l-0.8,4.9h9.2l-0.4,2.6H147l2.7-17.3
		L161.7,156.5z"/>
	<path id="Trazado_3" class="st0" d="M174.1,156.2c1.8,0,3.7,0.5,5.2,1.4l-0.4,2.6c-1.4-1-3.1-1.5-4.8-1.5c-2.2,0-3.7,0.6-3.9,2.1
		c-0.5,3.6,9.4,2.5,8.4,8.6c-0.6,3.6-3.8,4.6-7,4.6c-2.1,0-4.3-0.5-6.1-1.6l0.4-2.6c1.7,1.1,3.7,1.7,5.7,1.6c2.3,0,3.9-0.5,4.2-2.2
		c0.6-4-9.3-2.8-8.4-8.8C168.2,157.7,171,155.8,174.1,156.2z"/>
	<path id="Trazado_4" class="st0" d="M193.4,156.5c3.9-0.5,7.4,2.2,8,6c0.1,0.9,0.1,1.9-0.2,2.8c-0.6,5.2-5.2,8.9-10.3,8.5h-6.2
		l2.7-17.3L193.4,156.5z M193.1,159.1h-3.3l-1.9,12.2h3.2c3.7,0.3,7-2.5,7.3-6.3C198.9,161.2,197.2,159.1,193.1,159.1z"/>
	<path id="Trazado_5" class="st0" d="M221.5,156.5l-0.4,2.6H212l-0.7,4.7h8.4l-0.4,2.6h-8.4l-0.8,4.9h9.2l-0.4,2.6h-12.1l2.7-17.3
		L221.5,156.5z"/>
	<path id="Trazado_6" class="st0" d="M243.8,157l-2.3,14.3h3l-0.4,2.5h-9.1l0.4-2.5h3.4l1.8-11.4l-3.6,1.3l0.4-2.6l4.3-1.6
		L243.8,157z"/>
	<path id="Trazado_7" class="st0" d="M258.1,156.7c4.8,0,6.9,3.4,6.1,8.8c-0.2,4.9-4.2,8.7-9,8.7c-1.5,0-2.9-0.3-4.3-1l0.4-2.5
		c1.1,0.7,2.5,1,3.8,1c3.1,0.1,5.7-2.2,6.2-5.2c-1.5,0.8-3.2,1.3-4.9,1.3c-2.6,0.3-4.9-1.6-5.2-4.2c0-0.4,0-0.8,0-1.3
		C251.7,158.8,254.7,156.5,258.1,156.7z M254,162.3c-0.4,2.3,1.3,3,3.2,3c1.6,0,3.2-0.5,4.5-1.5c0.2-3.3-1.2-4.6-3.5-4.6
		C256.1,158.9,254.3,160.3,254,162.3L254,162.3z"/>
	<path id="Trazado_8" class="st0" d="M279.2,156.7c5,0,7,3.9,6.3,8.9c-0.2,4.7-4,8.5-8.8,8.6c-5,0-7-3.9-6.2-8.9
		C270.6,160.5,274.4,156.8,279.2,156.7z M279,159.3c-3.3,0-5.2,2.2-5.8,6.2c-0.6,3.8,0.5,6.2,3.6,6.2c3.3,0,5.2-2.2,5.9-6.2
		C283.2,161.6,282.2,159.3,279,159.3L279,159.3z"/>
	<path id="Trazado_9" class="st0" d="M299.2,163.2c2.6-0.2,4.9,1.7,5.1,4.4c0,0.4,0,0.8-0.1,1.2c-0.6,3.3-3.6,5.7-6.9,5.5
		c-4.9,0-6.9-3.4-6.1-8.8c0.2-5,4.5-8.9,9.5-8.7c1.3,0.1,2.6,0.4,3.8,1l-0.4,2.4c-1.1-0.7-2.4-1-3.8-1c-3.1,0-5.7,2.2-6.1,5.2
		C295.8,163.6,297.5,163.1,299.2,163.2z M301.5,168.5c0.4-2.2-1.3-2.9-3.2-2.9c-1.6,0-3.2,0.5-4.5,1.5c-0.2,3.3,1.2,4.6,3.5,4.6
		C299.3,172,301.2,170.6,301.5,168.5L301.5,168.5z"/>
</g>
<g id="Grupo_2" transform="translate(2.376 29.816)">
	<path id="Trazado_10" class="st0" d="M57,88.5c2.8-0.1,5.6,0.6,8.1,1.8l-0.6,4.2c-6.2-3.8-14.3-1.8-18.1,4.4
		c-0.7,1.2-1.2,2.4-1.5,3.7c-1.1,4.3,1.5,8.8,5.8,9.9c1,0.3,2,0.3,3.1,0.2c1.5,0,3-0.2,4.4-0.8l1.6-10.3h4.4L62.1,115
		c-2.8,1.2-5.8,1.8-8.9,1.8c-7.1,0-14.5-4.4-12.8-14.7C41.7,94,48.8,88.2,57,88.5z"/>
	<path id="Trazado_11" class="st0" d="M66.1,116.3L70.4,89h10.9c5,0,10.3,2.2,9.2,8.8c-0.6,4.1-3.8,7.2-7.8,7.8l6.9,10.7h-5
		L78,106.1h-5.9l-1.6,10.2H66.1z M72.8,102.1h6.6c3.1,0.4,6-1.6,6.6-4.7c0.5-3.5-2.1-4.4-5-4.4h-6.7L72.8,102.1z"/>
	<path id="Trazado_12" class="st0" d="M117.9,89l-2.7,17.3c-0.7,6.5-6.5,11.2-13,10.5c-6.1,0-11.6-2.8-10.4-10.8L94.5,89H99
		l-2.7,17.1c-0.8,5,1.8,6.6,6,6.6c4.2,0.5,8-2.4,8.5-6.6c0-0.1,0-0.2,0-0.3l2.7-16.8L117.9,89z"/>
	<path id="Trazado_13" class="st0" d="M132.6,89c5.7,0,11.2,2.2,10,9.3c-1.1,6.8-6.4,8.7-12.9,8.7h-5.5l-1.5,9.4h-4.5l4.3-27.3
		H132.6z M132.3,93h-5.9l-1.6,9.8h5.5c4,0,7.1-1.1,7.8-5.1C138.8,93.8,135.5,93,132.3,93L132.3,93z"/>
	<path id="Trazado_14" class="st0" d="M157,116.8c-6.6,0.4-12.2-4.6-12.6-11.2c-0.1-1.1,0-2.2,0.3-3.3c1.2-8.1,8.2-14.1,16.4-13.9
		c6.6-0.3,12.2,4.7,12.6,11.3c0.1,1,0,2.1-0.2,3.1C172.3,111.1,165.2,117.1,157,116.8z M157.3,112.6c5.9,0.1,10.9-4.2,11.7-10.1
		c1.1-4.2-1.4-8.5-5.6-9.7c-0.8-0.2-1.7-0.3-2.5-0.3c-5.9-0.1-10.9,4.2-11.6,10.1c-1.1,4.2,1.4,8.5,5.6,9.7
		C155.6,112.6,156.4,112.7,157.3,112.6z"/>
</g>
<g id="Grupo_3" transform="translate(0 40.481)">
	<path id="Trazado_15" class="st0" d="M56.5,116.1c5.1-0.1,10.1,1.2,14.6,3.7l-1.6,10.3c-3.7-2.7-8.1-4-12.6-3.9
		c-4.5,0.1-6.6,1.3-6.7,3.1c-0.4,5.8,22.4,4.7,19.6,20.1c-1.8,10-9.8,12.8-19.2,12.8c-5.8,0.1-11.6-1.3-16.6-4.2l1.7-10.7
		c4.2,3.2,9.3,4.9,14.6,4.8c4.5,0,7.3-1.1,7.6-3c1-7.3-22-5.1-19.4-20.6C39.8,119.9,48,116.1,56.5,116.1z"/>
	<path id="Trazado_16" class="st0" d="M102.2,161.2l-1.4-6.9H82.5l-3.6,6.9H66.6L91,117h12.6l10.4,44.2H102.2z M87.4,144.8h11.4
		l-2.4-12.4c-0.3-1.6-0.5-3.2-0.5-4.9c-0.5,1.6-1.2,3.2-2,4.7L87.4,144.8z"/>
	<path id="Trazado_17" class="st0" d="M130.6,117l-5.4,33.8h20.2l-1.6,10.4h-31.9l7-44.2L130.6,117z"/>
	<path id="Trazado_18" class="st0" d="M165.6,117l-7,44.2H147l7-44.2H165.6z"/>
	<path id="Trazado_19" class="st0" d="M163.2,161.2l7-44.2h9.7l14.8,25.1c0.1-2.4,0.4-4.8,0.8-7.1l2.8-18h11.7l-7,44.2h-9.7
		l-14.7-25.1c-0.1,2.2-0.3,4.4-0.6,6.6l-3,18.5H163.2z"/>
	<path id="Trazado_20" class="st0" d="M236.4,161.2l-1.4-6.9h-18.3l-3.6,6.9h-12.2l24.4-44.2h12.6l10.4,44.2H236.4z M221.6,144.8
		H233l-2.4-12.4c-0.3-1.6-0.5-3.2-0.5-4.9c-0.5,1.6-1.2,3.2-2,4.7L221.6,144.8z"/>
	<path id="Trazado_21" class="st0" d="M270.7,116.1c5.1-0.1,10.1,1.2,14.6,3.7l-1.6,10.3c-3.7-2.7-8.1-4-12.6-3.9
		c-4.5,0.1-6.6,1.3-6.7,3.1c-0.4,5.8,22.4,4.7,19.6,20.1c-1.8,10-9.8,12.8-19.2,12.8c-5.8,0.1-11.6-1.3-16.6-4.2l1.7-10.7
		c4.2,3.2,9.3,4.9,14.6,4.8c4.5,0,7.3-1.1,7.6-3c1-7.3-22-5.1-19.4-20.6C254,119.9,262.2,116.1,270.7,116.1z"/>
</g>
<path id="Trazado_22" class="st0" d="M334.7,113c0,23.8-10.6,46.4-28.9,61.6c-1.6,1.4-1.6,3.4,0,3.9c1.7,0.5,3.4-0.9,4.6-2
	c39-34.8,42.4-94.6,7.6-133.6c-34.8-39-94.6-42.4-133.6-7.6c-10.2,9.1-18.3,20.2-23.7,32.7c-4,10.2,1.1,21.7,11.3,25.7
	c2.1,0.8,4.4,1.3,6.7,1.3c2.4-6.2,14.8-63.8,76-62.2C298.9,34.1,334.7,68.7,334.7,113"/>
<path id="Trazado_23" class="st0" d="M203.3,83.8c0-6,4.9-10.9,10.9-10.9s10.9,4.9,10.9,10.9c0,6-4.9,10.9-10.9,10.9c0,0,0,0,0,0
	C208.2,94.7,203.3,89.8,203.3,83.8"/>
<path id="Trazado_24" class="st0" d="M189.2,131.5c17.2,12.9,38.1,19.8,59.6,19.9c22.2,0.3,43.8-7,61.3-20.6c0,0,3.9-2.7,0.8-5.2
	c-2.2-1.8-5.5,0.2-7.1,1.3c-16,11.2-35,17.6-54.6,18.3c-21.3,0.8-42.3-5.3-59.9-17.4c0,0-1.8-1.5-2.3,0.5
	C186.8,129.6,189.2,131.5,189.2,131.5"/>
<path id="Trazado_25" class="st0" d="M289,120.2c-11.7,6.7-24.7,11.1-38.1,12.8c-21.3,2.5-42.9-1.8-61.6-12.3c0,0-1.9-1.4-2.2,0.7
	c-0.2,1.3,2.4,2.9,2.4,2.9c18.4,11.4,40,16.6,61.5,14.8c15.5-1.3,30.4-6.2,43.7-14.2c1.7-0.8,3.3-1.8,4.7-3c1.4-1.2,1.6-3.3,0.4-4.7
	c-0.2-0.2-0.4-0.4-0.6-0.6c-2-1.6-3.7-0.4-5.1,0.3C293.7,117.2,292.2,118.4,289,120.2"/>
<path id="Trazado_26" class="st0" d="M277.5,111.2c-8.2,4.3-17,7.4-26,9.4c-20.9,4.4-42.8,2-62.2-6.8c0,0-2-1.2-2.2,0.9
	c-0.1,1.3,2.7,2.7,2.7,2.7c29.6,15,64.8,14.4,93.9-1.6c0,0,2.7-1.4,4.2-2.4c1.7-1.1,2.6-3.3,0-5.3c-2-1.5-4.5,0-5.6,0.6
	C281.8,108.8,279.3,110.3,277.5,111.2"/>
<path id="Trazado_27" class="st0" d="M265.5,102.4c-23.8,11.7-51.3,13.4-76.3,4.8c0,0-2.1-1-2.1,1.1c0,1.3,2.9,2.5,2.9,2.5
	c19.7,7.9,41.5,9.1,62,3.5c6.8-1.8,13.3-4.3,19.5-7.4c0,0,2.1-1.1,4-2.2c1.4-0.7,2-2.5,1.3-4c-0.2-0.4-0.5-0.8-0.9-1.1
	c-1.6-0.9-3.5-0.9-5.1,0C270,100,267.3,101.4,265.5,102.4"/>
<path id="Trazado_28" class="st0" d="M249.1,95.8c-19,8.1-40.1,9.6-60,4.5c0,0-2.2-0.8-2,1.2c0.1,1.3,3.1,2.2,3.1,2.2
	c19.9,6.1,41.2,5.4,60.6-2c3.1-1.1,6-2.3,8.9-3.7c4.3-2,2.9-1.4,3.6-1.7c1.4-0.6,2.1-2.1,1.5-3.5c-0.2-0.5-0.6-1-1.1-1.3
	c-2.2-1.7-5.5,0.3-6.5,0.8C254.8,93.3,251.1,95,249.1,95.8"/>
</svg>
