<?xml version="1.0" encoding="UTF-8"?>
<svg id="Capa_2" data-name="Capa 2" xmlns="http://www.w3.org/2000/svg" viewBox="0 0 400.39 185.64">
  <defs>
    <style>
      .cls-1 {
        fill: #fff;
      }
    </style>
  </defs>
  <g id="Capa_1-2" data-name="Capa 1">
    <path class="cls-1" d="M0,62.9H38.19c5.33,0,9.9,.16,13.71,.49,3.81,.33,7.12,.84,9.95,1.55,2.83,.71,5.3,1.61,7.42,2.69,2.12,1.09,4.16,2.39,6.12,3.92,5,3.92,8.73,8.84,11.18,14.77,2.45,5.93,3.67,11.99,3.67,18.2,0,3.48-.49,7.24-1.47,11.26-.98,4.03-2.64,7.86-4.98,11.5-2.34,3.65-5.44,6.85-9.3,9.63-3.86,2.77-8.62,4.65-14.28,5.63l32.8,41.12H57.77l-27.9-39h-.33v39H0V62.9Zm29.54,60.7h10.93c4.57,0,8.18-.62,10.85-1.88,2.66-1.25,4.68-2.77,6.04-4.57,1.36-1.8,2.26-3.67,2.69-5.63,.43-1.96,.65-3.7,.65-5.22,0-5.55-1.82-9.65-5.47-12.32-3.65-2.66-8.46-4-14.44-4h-11.26v33.62Z"/>
    <path class="cls-1" d="M242.2,126.29l-7.52,18.07c-.97,2.29-2.04,4.51-3.23,6.66-1.19,2.16-2.57,4.24-4.15,6.26l13.32,13.72-14.9,14.64-11.48-11.87c-.97,.79-2.29,1.85-3.96,3.17-1.67,1.32-3.72,2.64-6.13,3.96-2.42,1.32-5.21,2.44-8.37,3.36-3.17,.92-6.73,1.38-10.68,1.38-4.57,0-8.84-.73-12.79-2.18-3.96-1.45-7.41-3.47-10.35-6.07-2.95-2.59-5.25-5.61-6.92-9.03-1.67-3.43-2.51-7.12-2.51-11.08,0-3.6,.61-6.81,1.85-9.63,1.23-2.81,2.75-5.3,4.55-7.45,1.8-2.15,3.76-4,5.87-5.54,2.11-1.54,4.04-2.92,5.8-4.15-3.43-3.52-5.83-7.03-7.19-10.55-1.36-3.52-2.04-7.03-2.04-10.55s.7-6.81,2.11-9.89c1.41-3.08,3.32-5.76,5.74-8.05,2.42-2.29,5.28-4.07,8.57-5.34,3.3-1.27,6.84-1.91,10.62-1.91s7.23,.64,10.35,1.91c3.12,1.28,5.8,2.99,8.05,5.14,2.24,2.16,4,4.7,5.28,7.65,1.27,2.95,1.91,6.05,1.91,9.3s-.51,5.98-1.52,8.44c-1.01,2.46-2.22,4.6-3.63,6.4-1.41,1.8-2.88,3.32-4.42,4.55-1.54,1.23-2.84,2.24-3.89,3.03l11.48,11.61,7.12-15.96h23.08Zm-58.16,17.41c-1.58,1.23-3.23,2.75-4.95,4.55-1.71,1.8-2.57,4.07-2.57,6.79,0,3.08,1.12,5.45,3.36,7.12,2.24,1.67,4.86,2.51,7.85,2.51,3.43,0,6.02-.59,7.78-1.78,1.76-1.19,3.12-2.35,4.09-3.49l-15.56-15.7Zm4.09-24.8c1.49-1.49,2.88-3.08,4.15-4.75,1.27-1.67,1.91-3.69,1.91-6.07,0-1.76-.48-3.23-1.45-4.42-.97-1.19-2.37-1.78-4.22-1.78-1.5,0-2.86,.53-4.09,1.58-1.23,1.06-1.85,2.68-1.85,4.88s.64,4.31,1.91,6.07c1.27,1.76,2.48,3.25,3.63,4.48Z"/>
    <path class="cls-1" d="M307.38,62.9h38.19c5.33,0,9.9,.16,13.71,.49,3.81,.33,7.12,.84,9.95,1.55,2.83,.71,5.3,1.61,7.42,2.69,2.12,1.09,4.16,2.39,6.12,3.92,5,3.92,8.73,8.84,11.18,14.77,2.45,5.93,3.67,11.99,3.67,18.2,0,3.48-.49,7.24-1.47,11.26-.98,4.03-2.64,7.86-4.98,11.5-2.34,3.65-5.44,6.85-9.3,9.63-3.86,2.77-8.62,4.65-14.28,5.63l32.8,41.12h-35.25l-27.9-39h-.33v39h-29.54V62.9Zm29.54,60.7h10.93c4.57,0,8.18-.62,10.85-1.88,2.66-1.25,4.68-2.77,6.04-4.57,1.36-1.8,2.26-3.67,2.69-5.63,.43-1.96,.65-3.7,.65-5.22,0-5.55-1.82-9.65-5.47-12.32-3.65-2.66-8.46-4-14.44-4h-11.26v33.62Z"/>
    <g>
      <path class="cls-1" d="M1.7,.8H12.49V43.04H1.7V.8Z"/>
      <path class="cls-1" d="M30.24,43.04h-9.88v-9.7h9.88v9.7Z"/>
      <path class="cls-1" d="M43.14,10.27h-8.33V.8h27.4V10.27h-8.28V43.04h-10.79V10.27Z"/>
      <path class="cls-1" d="M71.45,43.04h-9.88v-9.7h9.88v9.7Z"/>
      <path class="cls-1" d="M134.81,27.23c-.61,2.51-1.59,4.79-2.94,6.82-1.35,2.04-2.96,3.78-4.82,5.22-1.87,1.45-3.96,2.57-6.28,3.37-2.32,.8-4.76,1.2-7.31,1.2-3.31,0-6.34-.61-9.08-1.83-2.74-1.22-5.08-2.84-7.02-4.88-1.94-2.04-3.45-4.38-4.54-7.02-1.08-2.64-1.63-5.39-1.63-8.25,0-2.7,.5-5.36,1.51-7.96,1.01-2.61,2.46-4.94,4.37-6.99,1.9-2.06,4.22-3.72,6.96-4.99,2.74-1.27,5.84-1.91,9.3-1.91s6.24,.57,8.79,1.71c2.55,1.14,4.71,2.55,6.48,4.22,1.77,1.67,3.17,3.5,4.2,5.48,1.03,1.98,1.69,3.79,2,5.42h-11.3c-.3-.8-.73-1.63-1.28-2.48-.55-.86-1.25-1.65-2.08-2.37-.84-.72-1.83-1.32-2.97-1.8-1.14-.48-2.44-.71-3.88-.71-1.83,0-3.43,.36-4.82,1.08-1.39,.72-2.57,1.66-3.54,2.83-.97,1.16-1.7,2.48-2.2,3.97-.5,1.48-.74,2.97-.74,4.45,0,1.6,.27,3.15,.8,4.65,.53,1.5,1.28,2.85,2.25,4.02,.97,1.18,2.16,2.12,3.57,2.83,1.41,.7,2.99,1.06,4.74,1.06s3.12-.3,4.34-.91c1.22-.61,2.23-1.31,3.03-2.11,.8-.8,1.42-1.59,1.85-2.37,.44-.78,.75-1.36,.94-1.74h11.3Z"/>
      <path class="cls-1" d="M138.52,27.17c0-1.94,.35-3.91,1.06-5.91,.7-2,1.76-3.8,3.17-5.42,1.41-1.62,3.18-2.94,5.31-3.97,2.13-1.03,4.64-1.54,7.54-1.54s5.4,.51,7.53,1.54c2.13,1.03,3.9,2.35,5.31,3.97,1.41,1.62,2.46,3.43,3.17,5.42,.7,2,1.06,3.97,1.06,5.91s-.35,3.91-1.06,5.91c-.7,2-1.76,3.81-3.17,5.42-1.41,1.62-3.18,2.94-5.31,3.97-2.13,1.03-4.64,1.54-7.53,1.54s-5.4-.51-7.54-1.54c-2.13-1.03-3.9-2.35-5.31-3.97-1.41-1.62-2.46-3.42-3.17-5.42-.7-2-1.06-3.97-1.06-5.91Zm9.48,0c0,1.14,.2,2.21,.6,3.2,.4,.99,.95,1.84,1.66,2.54,.7,.7,1.51,1.26,2.43,1.66,.91,.4,1.88,.6,2.91,.6s2-.2,2.91-.6c.91-.4,1.72-.95,2.43-1.66,.7-.7,1.26-1.55,1.66-2.54,.4-.99,.6-2.06,.6-3.2s-.2-2.21-.6-3.2c-.4-.99-.95-1.84-1.66-2.54-.7-.7-1.51-1.26-2.43-1.66-.91-.4-1.88-.6-2.91-.6s-2,.2-2.91,.6c-.91,.4-1.72,.95-2.43,1.66-.7,.7-1.26,1.55-1.66,2.54-.4,.99-.6,2.06-.6,3.2Z"/>
      <path class="cls-1" d="M178.02,11.36h8.85v3.37h.11c.23-.38,.54-.83,.94-1.34,.4-.51,.93-1,1.6-1.46,.67-.46,1.49-.85,2.48-1.17,.99-.32,2.19-.49,3.6-.49,1.52,0,3.03,.27,4.54,.8,1.5,.53,2.69,1.18,3.57,1.94,.42,.38,.85,.83,1.28,1.34,.44,.51,.83,1.17,1.17,1.97,.34,.8,.63,1.76,.86,2.88,.23,1.12,.34,2.46,.34,4.02v19.81h-9.48V25.74c0-.57-.03-1.23-.09-1.97-.06-.74-.24-1.46-.54-2.14-.3-.69-.79-1.26-1.46-1.74-.67-.48-1.63-.71-2.88-.71-1.37,0-2.42,.26-3.14,.77-.72,.51-1.26,1.12-1.6,1.83-.34,.7-.54,1.43-.6,2.17-.06,.74-.09,1.36-.09,1.86v17.24h-9.48V11.36Z"/>
      <path class="cls-1" d="M227.56,20.26c0-.15-.03-.37-.09-.66-.06-.29-.18-.55-.37-.8-.19-.25-.48-.47-.88-.66-.4-.19-.94-.29-1.63-.29-.99,0-1.68,.25-2.08,.74-.4,.5-.6,.95-.6,1.37,0,.88,.49,1.57,1.48,2.08,.99,.51,2.11,.96,3.37,1.34,1.33,.38,2.66,.79,4,1.23,1.33,.44,2.52,1.02,3.57,1.74,1.05,.72,1.89,1.64,2.54,2.74,.65,1.1,.97,2.51,.97,4.22s-.34,3.18-1.03,4.51c-.69,1.33-1.62,2.46-2.8,3.4-1.18,.93-2.55,1.65-4.11,2.14-1.56,.49-3.22,.74-4.97,.74-1.22,0-2.53-.15-3.94-.46-1.41-.3-2.74-.86-4-1.66-1.26-.8-2.34-1.87-3.25-3.22-.91-1.35-1.48-3.07-1.71-5.17h9.42c.11,.72,.34,1.28,.69,1.68,.34,.4,.71,.68,1.11,.86,.4,.17,.77,.28,1.11,.31,.34,.04,.57,.06,.69,.06,.8,0,1.55-.22,2.25-.66,.7-.44,1.06-1.04,1.06-1.8,0-.61-.15-1.1-.46-1.48-.3-.38-.79-.74-1.46-1.08-.67-.34-1.53-.7-2.6-1.08s-2.36-.86-3.88-1.43c-1.03-.34-2-.76-2.91-1.26-.91-.49-1.71-1.08-2.4-1.77s-1.23-1.46-1.63-2.34c-.4-.87-.6-1.85-.6-2.91,0-1.56,.33-2.99,1-4.28,.67-1.29,1.56-2.4,2.68-3.31,1.12-.91,2.43-1.62,3.91-2.11,1.48-.49,3.04-.74,4.68-.74,1.03,0,2.21,.13,3.54,.4,1.33,.27,2.6,.76,3.8,1.48,1.2,.72,2.25,1.73,3.17,3.03,.91,1.29,1.46,2.99,1.66,5.08h-9.3Z"/>
      <path class="cls-1" d="M271.91,43.04h-8.96v-3.37h-.11c-.5,1.03-1.08,1.83-1.77,2.4s-1.41,1.01-2.17,1.31c-.76,.3-1.51,.49-2.25,.57-.74,.08-1.42,.11-2.03,.11-.5,0-1.12-.04-1.88-.11-.76-.08-1.58-.26-2.45-.54-.88-.29-1.75-.69-2.63-1.23-.88-.53-1.66-1.24-2.34-2.11-.65-.8-1.15-1.55-1.51-2.25-.36-.7-.65-1.43-.86-2.17-.21-.74-.34-1.54-.4-2.4-.06-.86-.09-1.84-.09-2.94V11.36h9.48V28.88c0,.53,.03,1.17,.09,1.91,.06,.74,.24,1.44,.54,2.08,.3,.65,.81,1.2,1.51,1.66,.7,.46,1.68,.69,2.94,.69,.69,0,1.35-.1,2-.31,.65-.21,1.23-.55,1.74-1.03,.51-.48,.92-1.13,1.23-1.97,.3-.84,.46-1.88,.46-3.14V11.36h9.48v31.68Z"/>
      <path class="cls-1" d="M278.76,.8h9.48V43.04h-9.48V.8Z"/>
      <path class="cls-1" d="M306.45,11.36h4.57v7.19h-4.57v24.49h-9.48V18.55h-4.68v-7.19h4.68V.8h9.48V11.36Z"/>
      <path class="cls-1" d="M324.6,7.99h-9.48V.8h9.48V7.99Zm0,35.05h-9.48V11.36h9.48v31.68Z"/>
      <path class="cls-1" d="M331.45,11.36h8.85v3.37h.11c.23-.38,.54-.83,.94-1.34,.4-.51,.93-1,1.6-1.46,.67-.46,1.49-.85,2.48-1.17,.99-.32,2.19-.49,3.6-.49,1.52,0,3.03,.27,4.54,.8,1.5,.53,2.69,1.18,3.57,1.94,.42,.38,.85,.83,1.28,1.34,.44,.51,.83,1.17,1.17,1.97,.34,.8,.63,1.76,.86,2.88,.23,1.12,.34,2.46,.34,4.02v19.81h-9.48V25.74c0-.57-.03-1.23-.09-1.97-.06-.74-.24-1.46-.54-2.14-.3-.69-.79-1.26-1.46-1.74-.67-.48-1.63-.71-2.88-.71-1.37,0-2.42,.26-3.14,.77-.72,.51-1.26,1.12-1.6,1.83-.34,.7-.54,1.43-.6,2.17-.06,.74-.09,1.36-.09,1.86v17.24h-9.48V11.36Z"/>
      <path class="cls-1" d="M400.34,39.21c0,2.36-.12,4.36-.37,5.99-.25,1.64-.75,3.12-1.51,4.45-.61,.99-1.42,1.94-2.43,2.85-1.01,.91-2.2,1.71-3.57,2.4-1.37,.69-2.9,1.23-4.6,1.63-1.69,.4-3.51,.6-5.45,.6-2.74,0-5.08-.37-7.02-1.11s-3.54-1.66-4.8-2.77c-1.26-1.1-2.2-2.3-2.83-3.6-.63-1.29-1.02-2.51-1.17-3.65h10.96c.34,.8,.79,1.41,1.34,1.83,.55,.42,1.11,.72,1.68,.91,.57,.19,1.09,.3,1.57,.34,.48,.04,.79,.06,.94,.06,.3,0,.87-.05,1.71-.14,.84-.1,1.7-.42,2.6-.97,.89-.55,1.68-1.41,2.37-2.57,.69-1.16,1.03-2.81,1.03-4.94v-.97h-.11c-.23,.46-.58,.95-1.06,1.48-.48,.53-1.08,1.02-1.8,1.46-.72,.44-1.56,.81-2.51,1.11-.95,.3-2.06,.46-3.31,.46-2.17,0-4.22-.39-6.14-1.17-1.92-.78-3.62-1.89-5.08-3.34-1.47-1.45-2.63-3.2-3.48-5.25-.86-2.05-1.28-4.36-1.28-6.91,0-2.7,.45-5.11,1.34-7.22,.89-2.11,2.08-3.9,3.57-5.37,1.48-1.46,3.19-2.58,5.11-3.34,1.92-.76,3.91-1.14,5.96-1.14,1.79,0,3.47,.32,5.05,.97,1.58,.65,2.81,1.66,3.68,3.03h.11v-2.97h9.48v27.85Zm-24.83-12.16c0,1.26,.21,2.39,.63,3.4,.42,1.01,.98,1.86,1.68,2.57,.7,.7,1.51,1.25,2.43,1.63,.91,.38,1.86,.57,2.85,.57,1.14,0,2.19-.2,3.14-.6,.95-.4,1.77-.94,2.45-1.63s1.22-1.51,1.6-2.48c.38-.97,.57-2.03,.57-3.17,0-1.26-.2-2.39-.6-3.4-.4-1.01-.95-1.86-1.66-2.57-.7-.7-1.52-1.25-2.45-1.63-.93-.38-1.93-.57-3-.57s-2,.19-2.91,.57c-.91,.38-1.72,.92-2.43,1.63-.7,.7-1.26,1.54-1.68,2.51-.42,.97-.63,2.03-.63,3.17Z"/>
    </g>
  </g>
</svg>