<?xml version="1.0" encoding="UTF-8"?>
<svg id="Capa_2" data-name="Capa 2" xmlns="http://www.w3.org/2000/svg" viewBox="0 0 1016.39 519.58">
  <defs>
    <style>
      .cls-1 {
        fill: #e6e5e6;
      }
    </style>
  </defs>
  <g id="Capa_1-2" data-name="Capa 1">
    <g>
      <path class="cls-1" d="m83.83,325.52S41.56,76.65,614.43,39.09c0,0-413.22-93.91-535.3,9.39-52.88,44.74-150.26,145.57,4.7,277.04Z"/>
      <path class="cls-1" d="m932.57,194.05s42.26,248.87-530.61,286.43c0,0,413.22,93.91,535.3-9.39,52.88-44.74,150.26-145.57-4.7-277.04Z"/>
      <g>
        <path class="cls-1" d="m183.57,354.64l.88,22.53s1,14.37-18.01,16.75l.48,13.31,97.47-20.44v-14.74s-19.97,9.51-19.97-14.26l-1.9-151.67s38.04-14.74,49.45,3.33c0,0,13.79,54.68-36.61,67.04l73.22,105.55s27.1,6.66,73.69-8.56l-.48-11.89s-11.89,10.46-22.82-9.51l-61.81-86.05s32.81-23.3,29.95-52.3c0,0,5.23-38.51-42.79-41.84l-136.93,24.25-1.9,17.59s18.54-3.33,19.02,11.41l-.93,129.49Z"/>
        <path class="cls-1" d="m355.18,240.83l46.59-31.38h9.03l1.43,88.43s-3.33,10.94,14.26,12.84v13.79l-53.72,8.56v-86.05l-17.66-.51.07-5.67Z"/>
        <path class="cls-1" d="m467.98,194.95l-48.14,32.81.36,6.42,18.19-.71.36,77.38s1.78,7.49,12.12,7.13l31.02-4.28-1.43-88.43s18.19-13.91,17.83-4.99v78.45s2.5,8.91,17.83,6.78l28.53-7.13-1.43-85.94s12.12-16.05,16.76-1.78l1.43,75.24s3.57,8.2,20.68,6.78l100.2-19.97s43.86-14.62,41.72-39.58c0,0,2.85-24.96-26.39-32.81,0,0-38.51-9.63-36.01-22.11,0,0,2.5-15.69,62.76-19.97v-19.26s-53.84,8.56-84.15,19.61c0,0-48.85,15.69-24.96,43.5,0,0,52.42,29.6,52.42,42.08,0,0,4.64,9.63-10.7,16.05,0,0-46,8.91-54.91,7.84l-1.43-100.56-11.77.36-41.72,31.38-4.99.36-1.07-17.83s-5.71-6.06-14.26,1.78l-45.29,31.02-1.07-21.04-12.48,1.43Z"/>
        <path class="cls-1" d="m859.15,111.52s-113.39,5.71-130.51,83.44c0,0-6.42,69.89,59.91,52.77,0,0,26.39-14.26,18.54-24.96,0,0-34.94,6.42-35.66-34.23,0,0-1.43-48.49,42.08-52.06l3.57,87.72s1.43,17.83,27.1,12.12l27.81-7.13.71-14.26h-13.55v-103.41Z"/>
        <circle class="cls-1" cx="383.34" cy="181.82" r="23.8"/>
      </g>
    </g>
  </g>
</svg>