<?xml version="1.0" encoding="utf-8"?>
<!-- Generator: Adobe Illustrator 26.5.1, SVG Export Plug-In . SVG Version: 6.00 Build 0)  -->
<svg version="1.1"
	 id="Layer_1" xmlns:rdf="http://www.w3.org/1999/02/22-rdf-syntax-ns#" xmlns:sodipodi="http://sodipodi.sourceforge.net/DTD/sodipodi-0.dtd" xmlns:svg="http://www.w3.org/2000/svg" xmlns:inkscape="http://www.inkscape.org/namespaces/inkscape" xmlns:cc="http://creativecommons.org/ns#" xmlns:dc="http://purl.org/dc/elements/1.1/" sodipodi:docname="LogoTevaHeb.svg"
	 xmlns="http://www.w3.org/2000/svg" xmlns:xlink="http://www.w3.org/1999/xlink" x="0px" y="0px" viewBox="0 0 573.2 200.8"
	 style="enable-background:new 0 0 573.2 200.8;" xml:space="preserve">
<style type="text/css">
	.st0{fill:#E6E5E6;}
</style>
<sodipodi:namedview  bordercolor="#666666" borderopacity="1" fit-margin-bottom="0" fit-margin-left="0" fit-margin-right="0" fit-margin-top="0" gridtolerance="10" guidetolerance="10" id="namedview4" inkscape:current-layer="Layer_1" inkscape:cx="559.1054" inkscape:cy="82.678028" inkscape:pageopacity="0" inkscape:pageshadow="2" inkscape:window-height="1005" inkscape:window-maximized="1" inkscape:window-width="1920" inkscape:window-x="-9" inkscape:window-y="-9" inkscape:zoom="0.49048621" objecttolerance="10" pagecolor="#ffffff" showgrid="false">
	</sodipodi:namedview>
<g id="g257" transform="matrix(5.6439462,0,0,-5.6439462,-4047.8354,333.10683)">
	<path id="path148" inkscape:connector-curvature="0" class="st0" d="M811.7,50.8v-1.5c-2.2,1.8-4.9,2.7-7.8,2.7
		c-7.5,0-13.3-6.3-13.3-14.3c0-3.6,1.2-7,3.5-9.6c2.5-2.9,6.3-4.6,10.2-4.6c2.8,0,5.3,0.9,7.4,2.7v-1.5c0-0.3,0.3-0.6,0.6-0.6h5.9
		c0.3,0,0.6,0.3,0.6,0.6v26.2c0,0.3-0.3,0.6-0.6,0.6h-5.9C812,51.4,811.7,51.1,811.7,50.8 M812.2,37.7c0-3.7-2.8-7.4-7.1-7.4
		c-4.1,0-7.1,3.2-7.1,7.4c0,4.6,3.4,7.4,7.1,7.4C809.5,45.1,812.2,41.4,812.2,37.7"/>
	<path id="path152" inkscape:connector-curvature="0" class="st0" d="M734,30.1c-1.6,0-2.8,0.5-3.6,1.5c-0.6,0.7-0.9,1.7-0.9,3.4
		v10.1h7.6c0.3,0,0.6,0.3,0.6,0.6v5.2c0,0.3-0.3,0.6-0.6,0.6h-7.6v7c0,0.3-0.3,0.6-0.6,0.6h-6.1c-0.3,0-0.6-0.3-0.6-0.6v-7h-4.3
		c-0.3,0-0.6-0.3-0.6-0.6v-5.1c0-0.3,0.3-0.6,0.6-0.6h4.3v-9.4c0-3.9,0.6-6.3,2-8.2c1.9-2.6,5.2-4,9.4-4c3.3,0,5.3,0.8,6.5,1.7
		c0.3,0.3,0.4,0.8,0.2,1.1c-0.2,0.2-2.7,4.2-2.7,4.2c-0.2,0.4-0.7,0.5-1.1,0.2C735.9,30.4,734.8,30.1,734,30.1"/>
	<path id="path156" inkscape:connector-curvature="0" class="st0" d="M751.9,52c-3.8,0-7.2-1.5-9.6-4.3c-2.3-2.6-3.6-6.2-3.6-10
		c0-8.4,5.8-14.2,14.2-14.2c3.7,0,7.3,1.3,9.8,3.6c0.1,0.1,0.2,0.2,0.4,0.4c0.2,0.2,0.2,0.6,0.1,0.8c-0.7,0.9-2.2,2.9-2.9,3.9
		c-0.2,0.3-0.6,0.3-0.9,0.1c-0.2-0.2-0.4-0.3-0.6-0.5c-1.2-1-3.2-2.2-5.7-2.2c-3.8,0-6.8,2.6-7.2,6.3h17.9c0.4,0,0.8,0.3,0.9,0.8
		c0,0.3,0.1,0.8,0.1,1.4c0,3.8-1.3,7.3-3.6,9.9C758.7,50.5,755.4,52,751.9,52 M751.9,46c2.3,0,5-1.8,5.3-4.6h-11
		C746.5,43.6,748.8,46,751.9,46"/>
	<path id="path160" inkscape:connector-curvature="0" class="st0" d="M778,30.5l0,3.9c0,1.6,0.3,3.4,0.9,5.2
		c0.7,2.1,1.7,3.8,2.8,5.1l1.7,2.2v-9.2L778,30.5z"/>
	<path id="path164" inkscape:connector-curvature="0" class="st0" d="M783.5,46.9l3.6,4.7c0.3,0.4,0.8,0.5,1.2,0.3
		c0.4-0.2,0.7-0.6,0.7-1.1l0-5.8l-5.5-7.3L783.5,46.9z"/>
	<path id="path168" inkscape:connector-curvature="0" class="st0" d="M789,45l0-3.3c0.1-1.7-0.2-3.7-0.9-5.7
		c-0.6-1.8-1.4-3.4-2.4-4.6l-2.2-2.9v9.2L789,45z"/>
	<path id="path172" inkscape:connector-curvature="0" class="st0" d="M783.5,37.8v-9.2l-3.6-4.6c-0.3-0.4-0.8-0.5-1.2-0.3
		c-0.4,0.2-0.7,0.6-0.7,1.1l0,5.8L783.5,37.8z"/>
	<path id="path176" inkscape:connector-curvature="0" class="st0" d="M777.3,30.5l0,3.9c0,1.6-0.3,3.4-0.9,5.2
		c-0.7,2.1-1.7,3.8-2.8,5.1l-1.7,2.2v-9.2L777.3,30.5z"/>
	<path id="path180" inkscape:connector-curvature="0" class="st0" d="M771.8,46.9l-3.6,4.7c-0.3,0.4-0.8,0.5-1.2,0.3
		c-0.4-0.2-0.7-0.6-0.7-1.1l0-5.8l5.5-7.3V46.9z"/>
	<path id="path184" inkscape:connector-curvature="0" class="st0" d="M766.3,45l0-3.3c-0.1-1.7,0.2-3.7,0.9-5.7
		c0.6-1.8,1.4-3.4,2.4-4.6l2.2-2.9v9.2L766.3,45z"/>
	<path id="path188" inkscape:connector-curvature="0" class="st0" d="M771.8,37.8v-9.2l3.6-4.6c0.3-0.4,0.8-0.5,1.2-0.3
		c0.4,0.2,0.7,0.6,0.7,1.1l0,5.8L771.8,37.8z"/>
</g>
</svg>
